<svg width="56" height="60" viewBox="0 0 56 60" fill="none" xmlns="http://www.w3.org/2000/svg">
<path d="M25.0552 33.3501L22.3802 31.2751C22.4394 30.8693 22.4728 30.4601 22.4802 30.0501C22.4852 29.6395 22.4518 29.2294 22.3802 28.8251L25.0302 26.7501C25.1425 26.6537 25.2186 26.5219 25.2459 26.3765C25.2732 26.231 25.25 26.0806 25.1802 25.9501L22.6802 21.6251C22.6046 21.4948 22.4852 21.3956 22.3432 21.3452C22.2013 21.2948 22.046 21.2966 21.9052 21.3501L18.8052 22.6001C18.1594 22.0918 17.4437 21.6792 16.6802 21.3751L16.2052 18.0751C16.1874 17.9291 16.1163 17.7948 16.0056 17.6979C15.8949 17.601 15.7523 17.5484 15.6052 17.5501H10.6052C10.4563 17.5516 10.3126 17.6048 10.1986 17.7006C10.0846 17.7964 10.0074 17.9287 9.9802 18.0751L9.5052 21.3751C8.74923 21.6946 8.03551 22.106 7.3802 22.6001L4.2802 21.3501C4.13904 21.3005 3.98516 21.3008 3.84417 21.3508C3.70317 21.4008 3.58355 21.4976 3.5052 21.6251L1.0052 25.9501C0.929492 26.0791 0.902976 26.2311 0.930543 26.3782C0.958109 26.5252 1.0379 26.6573 1.1552 26.7501L3.8052 28.8251C3.70511 29.6387 3.70511 30.4615 3.8052 31.2751L1.1552 33.3501C1.04286 33.4464 0.966756 33.5782 0.939481 33.7237C0.912206 33.8692 0.935391 34.0196 1.0052 34.1501L3.5052 38.4751C3.58077 38.6054 3.7002 38.7046 3.84217 38.755C3.98414 38.8054 4.13939 38.8036 4.2802 38.7501L7.3802 37.5001C8.02598 38.0084 8.74167 38.421 9.5052 38.7251L9.9802 42.0251C10.0037 42.1732 10.0798 42.3079 10.1946 42.4043C10.3095 42.5008 10.4553 42.5526 10.6052 42.5501H15.6052C15.7541 42.5486 15.8978 42.4954 16.0118 42.3996C16.1258 42.3038 16.203 42.1715 16.2302 42.0251L16.7052 38.7251C17.4561 38.4111 18.1622 37.9992 18.8052 37.5001L21.9302 38.7501C22.0714 38.7997 22.2252 38.7994 22.3662 38.7494C22.5072 38.6993 22.6269 38.6026 22.7052 38.4751L25.2052 34.1501C25.275 34.0196 25.2982 33.8692 25.2709 33.7237C25.2436 33.5782 25.1675 33.4464 25.0552 33.3501V33.3501ZM13.1052 33.8001C12.3635 33.8001 11.6385 33.5802 11.0218 33.1681C10.4051 32.7561 9.92448 32.1704 9.64065 31.4852C9.35682 30.7999 9.28256 30.0459 9.42726 29.3185C9.57195 28.5911 9.9291 27.9229 10.4536 27.3984C10.978 26.874 11.6462 26.5168 12.3736 26.3722C13.101 26.2275 13.855 26.3017 14.5403 26.5855C15.2255 26.8694 15.8112 27.35 16.2232 27.9667C16.6353 28.5834 16.8552 29.3084 16.8552 30.0501C16.8559 30.5427 16.7593 31.0307 16.5711 31.4859C16.3829 31.9412 16.1067 32.3549 15.7583 32.7032C15.41 33.0516 14.9963 33.3278 14.541 33.516C14.0858 33.7042 13.5978 33.8008 13.1052 33.8001V33.8001ZM47.9927 0.0375977H37.9927C37.3316 0.0402443 36.6986 0.304884 36.2323 0.77351C35.766 1.24214 35.5045 1.87652 35.5052 2.5376L35.5002 7.5001H10.4927V15.0251L15.5227 15.0551V12.5301L35.4977 12.5001L35.4927 22.5376C35.492 23.1987 35.7535 23.8331 36.2198 24.3017C36.6861 24.7703 37.3191 25.035 37.9802 25.0376H52.9927C53.6551 25.0356 54.2899 24.7716 54.7583 24.3032C55.2267 23.8348 55.4907 23.2 55.4927 22.5376V7.5376L47.9927 0.0375977ZM46.7427 8.7876V1.9126L53.6177 8.7876H46.7427ZM47.9952 35.0226H37.9952C37.3341 35.0252 36.7011 35.2899 36.2348 35.7585C35.7685 36.2271 35.507 36.8615 35.5077 37.5226L35.5027 47.5476L15.5277 47.5576V45.0326H10.5002V52.5576L35.5002 52.5476L35.4952 57.5226C35.4945 58.1837 35.756 58.8181 36.2223 59.2867C36.6886 59.7553 37.3216 60.02 37.9827 60.0226H52.9952C53.6576 60.0206 54.2924 59.7566 54.7608 59.2882C55.2292 58.8198 55.4932 58.185 55.4952 57.5226V42.5226L47.9952 35.0226ZM46.7452 43.7726V36.8976L53.6202 43.7726H46.7452Z" fill="white"/>
</svg>
