<svg width="54" height="47" viewBox="0 0 54 47" fill="none" xmlns="http://www.w3.org/2000/svg">
<path d="M21.375 26.8124C21.375 27.3687 21.21 27.9124 20.901 28.3749C20.5919 28.8375 20.1527 29.1979 19.6388 29.4108C19.1249 29.6237 18.5594 29.6794 18.0138 29.5709C17.4682 29.4623 16.9671 29.1945 16.5737 28.8011C16.1804 28.4078 15.9125 27.9067 15.804 27.3611C15.6955 26.8155 15.7512 26.25 15.9641 25.7361C16.1769 25.2222 16.5374 24.7829 16.9999 24.4739C17.4625 24.1649 18.0062 23.9999 18.5625 23.9999C19.3084 23.9999 20.0238 24.2962 20.5512 24.8237C21.0787 25.3511 21.375 26.0665 21.375 26.8124ZM35.4375 29.6249C35.9937 29.6249 36.5375 29.4599 37 29.1509C37.4625 28.8419 37.823 28.4026 38.0359 27.8887C38.2488 27.3748 38.3045 26.8093 38.1959 26.2637C38.0874 25.7181 37.8195 25.217 37.4262 24.8237C37.0329 24.4303 36.5317 24.1625 35.9862 24.0539C35.4406 23.9454 34.8751 24.0011 34.3612 24.214C33.8473 24.4269 33.408 24.7873 33.099 25.2499C32.7899 25.7124 32.625 26.2561 32.625 26.8124C32.625 27.5583 32.9213 28.2737 33.4487 28.8011C33.9762 29.3286 34.6916 29.6249 35.4375 29.6249ZM51.539 27.7499C51.0452 27.9706 50.5096 28.0825 49.9687 28.078C49.1128 28.0798 48.2834 27.7812 47.625 27.2343V37.1249C47.625 39.6113 46.6373 41.9959 44.8791 43.754C43.1209 45.5122 40.7364 46.4999 38.25 46.4999H15.75C13.2636 46.4999 10.879 45.5122 9.12085 43.754C7.3627 41.9959 6.37498 39.6113 6.37498 37.1249V27.2343C5.71657 27.7812 4.88716 28.0798 4.03123 28.078C3.49032 28.0825 2.95479 27.9706 2.46092 27.7499C1.68828 27.4087 1.05552 26.8135 0.667592 26.0632C0.279663 25.313 0.159877 24.4526 0.328105 23.6249L4.17185 3.11709C4.26849 2.61577 4.46585 2.13927 4.75199 1.71644C5.03814 1.29361 5.40711 0.933248 5.83657 0.657165C6.26603 0.381081 6.74706 0.19502 7.25052 0.110245C7.75398 0.0254697 8.26941 0.0437437 8.7656 0.163961L21.6094 3.3749H32.3906L45.2344 0.163961C45.7305 0.0437437 46.246 0.0254697 46.7494 0.110245C47.2529 0.19502 47.7339 0.381081 48.1634 0.657165C48.5928 0.933248 48.9618 1.29361 49.248 1.71644C49.5341 2.13927 49.7315 2.61577 49.8281 3.11709L53.6719 23.6249C53.8401 24.4526 53.7203 25.313 53.3324 26.0632C52.9444 26.8135 52.3117 27.4087 51.539 27.7499V27.7499ZM43.875 22.5937L31.7109 7.1249H22.289L10.125 22.5937V37.1249C10.1311 38.6148 10.7258 40.042 11.7793 41.0956C12.8329 42.1491 14.26 42.7437 15.75 42.7499H25.125V39.7733L21.914 36.5858C21.615 36.2215 21.4623 35.759 21.4854 35.2883C21.5085 34.8176 21.7059 34.3723 22.0391 34.039C22.3724 33.7058 22.8177 33.5084 23.2884 33.4853C23.7591 33.4622 24.2216 33.615 24.5859 33.914L27 36.3515L29.414 33.914C29.7783 33.615 30.2408 33.4622 30.7116 33.4853C31.1823 33.5084 31.6276 33.7058 31.9608 34.039C32.2941 34.3723 32.4915 34.8176 32.5146 35.2883C32.5377 35.759 32.3849 36.2215 32.0859 36.5858L28.875 39.7733V42.7499H38.25C39.7399 42.7437 41.1671 42.1491 42.2206 41.0956C43.2742 40.042 43.8688 38.6148 43.875 37.1249V22.5937Z" fill="white"/>
</svg>
