<svg width="60" height="60" viewBox="0 0 60 60" fill="none" xmlns="http://www.w3.org/2000/svg">
<path d="M28.75 6.25H31.25V51.25H28.75V6.25Z" fill="white"/>
<path d="M32.2712 40.9648L34.0387 42.7323L21.4887 55.2823L19.7212 53.5148L32.2712 40.9648Z" fill="white"/>
<path d="M40.3238 53.53L38.5563 55.2975L26.0063 42.7475L27.7738 40.98L40.3238 53.53Z" fill="white"/>
<path d="M5 10H55V45H5V10Z" fill="#424242"/>
<path d="M3.75 8.75H56.25V13.75H3.75V8.75ZM3.75 43.75H56.25V46.25H3.75V43.75Z" fill="#E2E2E2"/>
<path d="M39.375 56.25C40.4105 56.25 41.25 55.4105 41.25 54.375C41.25 53.3395 40.4105 52.5 39.375 52.5C38.3395 52.5 37.5 53.3395 37.5 54.375C37.5 55.4105 38.3395 56.25 39.375 56.25Z" fill="#E2E2E2"/>
<path d="M20.625 56.25C21.6605 56.25 22.5 55.4105 22.5 54.375C22.5 53.3395 21.6605 52.5 20.625 52.5C19.5895 52.5 18.75 53.3395 18.75 54.375C18.75 55.4105 19.5895 56.25 20.625 56.25Z" fill="#E2E2E2"/>
<path d="M39.875 23.625L32.5 31.125L25 23.625L14.875 33.625L17.625 36.375L25 28.875L32.5 36.375L42.625 26.375L39.875 23.625Z" fill="white"/>
<path d="M45 30L36.25 21.25H45V30Z" fill="white"/>
</svg>
