<svg width="51" height="50" viewBox="0 0 51 50" fill="none" xmlns="http://www.w3.org/2000/svg">
<path d="M15.5 40C12.75 40 10.525 42.25 10.525 45C10.525 47.75 12.75 50 15.5 50C18.25 50 20.5 47.75 20.5 45C20.5 42.25 18.25 40 15.5 40ZM40.5 40C37.75 40 35.525 42.25 35.525 45C35.525 47.75 37.75 50 40.5 50C43.25 50 45.5 47.75 45.5 45C45.5 42.25 43.25 40 40.5 40ZM18.25 27.5H36.875C38.75 27.5 40.4 26.475 41.25 24.925L50.5 7.4L46.125 5L36.875 22.5H19.325L8.675 0H0.5V5H5.5L14.5 23.975L11.125 30.075C9.3 33.425 11.7 37.5 15.5 37.5H45.5V32.5H15.5L18.25 27.5ZM28 0L38 10L28 20L24.475 16.475L28.425 12.5H18V7.5H28.425L24.45 3.525L28 0Z" fill="white"/>
</svg>
