<svg width="47" height="46" viewBox="0 0 47 46" fill="none" xmlns="http://www.w3.org/2000/svg">
<path d="M43.2366 29.0307C43.0929 29.0306 42.9525 28.9879 42.8332 28.9079C42.7138 28.828 42.6208 28.7144 42.5658 28.5816C42.5109 28.4488 42.4966 28.3026 42.5246 28.1616C42.5527 28.0206 42.6218 27.8911 42.7234 27.7895C42.825 27.6878 42.9544 27.6186 43.0952 27.5905C43.2361 27.5624 43.3821 27.5768 43.5148 27.6318C43.6475 27.6867 43.761 27.7799 43.8408 27.8993C43.9207 28.0188 43.9634 28.1593 43.9635 28.3031C43.9633 28.496 43.8867 28.681 43.7504 28.8174C43.6141 28.9538 43.4293 29.0305 43.2366 29.0307V29.0307ZM20.7007 44.6195C20.5571 44.6194 20.4167 44.5767 20.2973 44.4967C20.1779 44.4168 20.0849 44.3032 20.03 44.1703C19.9751 44.0375 19.9607 43.8913 19.9888 43.7503C20.0169 43.6093 20.0861 43.4798 20.1877 43.3781C20.2894 43.2765 20.4188 43.2073 20.5597 43.1793C20.7006 43.1513 20.8466 43.1657 20.9793 43.2207C21.112 43.2758 21.2255 43.369 21.3053 43.4885C21.385 43.6081 21.4276 43.7487 21.4276 43.8924C21.4276 43.988 21.4088 44.0825 21.3723 44.1708C21.3358 44.259 21.2822 44.3392 21.2147 44.4067C21.1472 44.4743 21.0671 44.5278 20.9789 44.5643C20.8907 44.6008 20.7962 44.6196 20.7007 44.6195ZM43.2366 26.9995C43.0654 26.9995 42.8959 27.0332 42.7377 27.0987C42.5796 27.1642 42.4359 27.2602 42.3148 27.3813C42.1937 27.5024 42.0977 27.6462 42.0321 27.8044C41.9665 27.9627 41.9328 28.1323 41.9327 28.3036C41.9329 28.3598 41.9366 28.4159 41.9437 28.4717C39.8123 29.5535 37.3603 29.8219 35.0457 29.2267C34.9514 29.2024 34.8524 29.2031 34.7585 29.2288C34.6645 29.2546 34.5789 29.3043 34.5101 29.3733L21.2019 42.6871C20.9295 42.5733 20.6265 42.5555 20.3426 42.6368C20.0587 42.7181 19.8109 42.8936 19.6399 43.1344C19.4688 43.3753 19.3847 43.6672 19.4012 43.9623C19.4178 44.2573 19.5341 44.5379 19.7311 44.7581C19.9281 44.9782 20.194 45.1248 20.4851 45.1737C20.7763 45.2226 21.0754 45.171 21.3334 45.0273C21.5914 44.8836 21.7929 44.6563 21.9048 44.3829C22.0167 44.1094 22.0324 43.806 21.9493 43.5224L35.0801 30.3876C37.6085 30.959 40.2574 30.6149 42.5565 29.4167C42.7282 29.5219 42.922 29.5859 43.1225 29.6036C43.3231 29.6213 43.5251 29.5923 43.7126 29.5187C43.9001 29.4452 44.068 29.3292 44.2031 29.1798C44.3383 29.0304 44.4371 28.8517 44.4916 28.6577C44.5462 28.4637 44.5552 28.2597 44.5177 28.0617C44.4803 27.8636 44.3976 27.677 44.276 27.5163C44.1544 27.3557 43.9972 27.2254 43.8169 27.1357C43.6366 27.0461 43.4379 26.9995 43.2366 26.9995V26.9995ZM44.5419 22.0491C44.3983 22.049 44.2579 22.0063 44.1385 21.9263C44.0191 21.8464 43.926 21.7328 43.8711 21.5999C43.8162 21.4671 43.8019 21.3209 43.83 21.1799C43.8581 21.0389 43.9273 20.9094 44.0289 20.8077C44.1305 20.7061 44.26 20.6369 44.4009 20.6089C44.5418 20.5809 44.6878 20.5953 44.8205 20.6503C44.9532 20.7054 45.0666 20.7986 45.1464 20.9181C45.2262 21.0377 45.2688 21.1782 45.2688 21.322C45.2688 21.4176 45.25 21.5121 45.2135 21.6004C45.1769 21.6886 45.1234 21.7688 45.0559 21.8363C44.9884 21.9039 44.9082 21.9574 44.82 21.9939C44.7319 22.0304 44.6373 22.0492 44.5419 22.0491V22.0491ZM35.791 27.6708C35.6473 27.6709 35.5067 27.6283 35.3871 27.5484C35.2674 27.4685 35.1742 27.3549 35.1191 27.222C35.064 27.089 35.0495 26.9427 35.0775 26.8016C35.1055 26.6604 35.1747 26.5307 35.2764 26.4289C35.378 26.3271 35.5075 26.2577 35.6485 26.2296C35.7896 26.2015 35.9358 26.2159 36.0686 26.2709C36.2015 26.326 36.315 26.4193 36.3949 26.5389C36.4748 26.6586 36.5175 26.7993 36.5175 26.9432C36.5175 27.0387 36.4988 27.1333 36.4623 27.2216C36.4258 27.3099 36.3723 27.3901 36.3049 27.4576C36.2374 27.5252 36.1573 27.5788 36.0691 27.6154C35.981 27.6519 35.8865 27.6708 35.791 27.6708V27.6708ZM44.5419 20.018C44.2743 20.0179 44.0132 20.1003 43.7941 20.254C43.5749 20.4077 43.4084 20.6252 43.3171 20.8769C43.2257 21.1287 43.2141 21.4025 43.2836 21.6611C43.3532 21.9197 43.5006 22.1506 43.7059 22.3224C43.1604 23.6266 42.2185 24.7257 41.0138 25.464C39.8091 26.2023 38.4028 26.5422 36.9943 26.4355C36.8791 26.1627 36.6747 25.9372 36.4145 25.7961C36.1544 25.6549 35.854 25.6066 35.5628 25.6589C35.2716 25.7112 35.0068 25.8611 34.8119 26.084C34.6171 26.3069 34.5038 26.5895 34.4906 26.8854C34.4775 27.1813 34.5652 27.4728 34.7395 27.7121C34.9138 27.9515 35.1643 28.1243 35.4497 28.2024C35.7352 28.2804 36.0386 28.2589 36.3103 28.1415C36.5819 28.024 36.8055 27.8176 36.9444 27.5561C37.1288 27.5694 37.3136 27.5762 37.499 27.5765C39.0742 27.5758 40.6129 27.1009 41.9149 26.2134C43.217 25.326 44.2222 24.067 44.8 22.6002C45.1163 22.5354 45.3974 22.3555 45.5888 22.0952C45.7801 21.8349 45.8681 21.5128 45.8358 21.1912C45.8034 20.8697 45.6529 20.5716 45.4135 20.3547C45.1741 20.1379 44.8628 20.0177 44.5399 20.0175L44.5419 20.018ZM31.9711 23.7222C32.1148 23.7222 32.2552 23.7648 32.3747 23.8447C32.4942 23.9246 32.5873 24.0382 32.6423 24.171C32.6972 24.3039 32.7116 24.4501 32.6836 24.5911C32.6556 24.7322 32.5864 24.8617 32.4848 24.9634C32.3832 25.0651 32.2538 25.1343 32.1129 25.1624C31.9719 25.1904 31.8259 25.176 31.6931 25.121C31.5604 25.066 31.447 24.9728 31.3671 24.8532C31.2873 24.7337 31.2447 24.5931 31.2447 24.4493C31.2447 24.2564 31.3212 24.0715 31.4575 23.9352C31.5937 23.7988 31.7785 23.7222 31.9711 23.7222V23.7222ZM44.1842 15.9761C44.3279 15.9761 44.4683 16.0188 44.5878 16.0987C44.7072 16.1786 44.8003 16.2921 44.8553 16.425C44.9103 16.5578 44.9247 16.704 44.8966 16.8451C44.8686 16.9861 44.7994 17.1157 44.6978 17.2174C44.5962 17.319 44.4668 17.3883 44.3259 17.4163C44.185 17.4444 44.0389 17.43 43.9062 17.375C43.7735 17.3199 43.66 17.2267 43.5802 17.1072C43.5004 16.9876 43.4578 16.847 43.4578 16.7032C43.4579 16.5104 43.5345 16.3256 43.6707 16.1893C43.8069 16.0529 43.9916 15.9763 44.1842 15.9761V15.9761ZM44.1842 18.0078C44.5298 18.0078 44.8612 17.8704 45.1056 17.6258C45.35 17.3812 45.4873 17.0494 45.4873 16.7035C45.4873 16.3576 45.35 16.0258 45.1056 15.7812C44.8612 15.5366 44.5298 15.3992 44.1842 15.3992C44.1394 15.3992 44.0947 15.4017 44.0502 15.4067C42.9162 13.6851 41.1514 12.4789 39.1366 12.0484C37.1218 11.618 35.0188 11.9977 33.2813 13.1058C31.5439 14.2139 30.3115 15.9613 29.8501 17.971C29.3887 19.9806 29.7354 22.0913 30.8152 23.8474C30.6782 24.1104 30.6346 24.4122 30.6915 24.7033C30.7484 24.9944 30.9025 25.2575 31.1284 25.4495C31.3544 25.6414 31.6388 25.7508 31.935 25.7596C32.2312 25.7685 32.5217 25.6763 32.7587 25.4982C32.9957 25.3201 33.1651 25.0666 33.2393 24.7794C33.3134 24.4922 33.2879 24.1884 33.1668 23.9176C33.0457 23.6469 32.8362 23.4254 32.5728 23.2895C32.3094 23.1536 32.0076 23.1113 31.717 23.1697C30.8046 21.6605 30.5205 19.8532 30.9256 18.1364C31.3308 16.4197 32.393 14.9308 33.8837 13.9898C35.3744 13.0489 37.1745 12.7311 38.8968 13.1049C40.6192 13.4787 42.1261 14.5142 43.0936 15.9886C42.9649 16.1853 42.8917 16.4132 42.8819 16.6481C42.8721 16.883 42.9259 17.1162 43.0376 17.323C43.1494 17.5298 43.315 17.7025 43.5168 17.8228C43.7187 17.9431 43.9493 18.0065 44.1842 18.0063V18.0078ZM33.7722 3.49061C33.9159 3.49061 34.0563 3.53326 34.1758 3.61315C34.2953 3.69304 34.3884 3.8066 34.4433 3.93945C34.4983 4.07231 34.5127 4.2185 34.4847 4.35954C34.4567 4.50058 34.3875 4.63013 34.2859 4.73182C34.1843 4.8335 34.0549 4.90275 33.9139 4.9308C33.773 4.95886 33.627 4.94446 33.4942 4.88943C33.3615 4.8344 33.2481 4.74121 33.1682 4.62164C33.0884 4.50207 33.0458 4.3615 33.0458 4.21769C33.0459 4.0249 33.1225 3.84004 33.2587 3.70372C33.3949 3.56739 33.5796 3.49075 33.7722 3.49061V3.49061ZM44.797 11.6052C44.9407 11.6052 45.0811 11.6478 45.2006 11.7277C45.32 11.8076 45.4131 11.9212 45.4681 12.054C45.5231 12.1869 45.5375 12.3331 45.5095 12.4741C45.4814 12.6152 45.4122 12.7447 45.3107 12.8464C45.2091 12.9481 45.0796 13.0173 44.9387 13.0454C44.7978 13.0734 44.6518 13.059 44.519 13.004C44.3863 12.949 44.2728 12.8558 44.193 12.7362C44.1132 12.6166 44.0706 12.4761 44.0706 12.3323C44.0707 12.1395 44.1473 11.9546 44.2835 11.8183C44.4197 11.682 44.6044 11.6053 44.797 11.6052V11.6052ZM33.7722 5.52125C33.9432 5.52125 34.1126 5.48735 34.2705 5.42151L38.7231 9.87625C38.8068 9.96022 38.915 10.0154 39.032 10.0338C40.6769 10.2903 42.2283 10.9655 43.5375 11.9947C43.5077 12.1044 43.4926 12.2176 43.4926 12.3313C43.4925 12.6129 43.5833 12.8869 43.7515 13.1126C43.9198 13.3383 44.1564 13.5035 44.4262 13.5834C44.6959 13.6634 44.9843 13.6539 45.2482 13.5564C45.5121 13.4588 45.7374 13.2785 45.8905 13.0422C46.0435 12.806 46.1162 12.5265 46.0975 12.2455C46.0788 11.9646 45.9699 11.6972 45.7869 11.4833C45.6039 11.2694 45.3567 11.1205 45.0822 11.0588C44.8077 10.9971 44.5207 11.0259 44.2639 11.1409C42.8464 10.0167 41.1702 9.26577 39.3882 8.95668L35.0223 4.58772C35.1006 4.32494 35.0942 4.04414 35.004 3.7852C34.9139 3.52625 34.7445 3.30231 34.52 3.14517C34.2954 2.98803 34.0272 2.90568 33.7532 2.90979C33.4793 2.91391 33.2136 3.00429 32.9939 3.16811C32.7742 3.33193 32.6116 3.56085 32.5293 3.82239C32.4469 4.08393 32.4489 4.36479 32.5351 4.6251C32.6213 4.88541 32.7871 5.11194 33.0092 5.27254C33.2313 5.43313 33.4982 5.51963 33.7722 5.51976V5.52125ZM1.30373 16.3566C1.15994 16.3566 1.01938 16.314 0.899831 16.234C0.78028 16.154 0.68711 16.0404 0.632106 15.9074C0.577102 15.7744 0.562736 15.6281 0.590824 15.4869C0.618913 15.3458 0.688194 15.2161 0.789905 15.1144C0.891615 15.0127 1.02119 14.9434 1.16223 14.9154C1.30327 14.8874 1.44944 14.9019 1.58226 14.957C1.71507 15.0122 1.82857 15.1055 1.90838 15.2252C1.9882 15.3449 2.03075 15.4856 2.03065 15.6296C2.03065 15.7251 2.01184 15.8197 1.97531 15.9079C1.93877 15.9962 1.88522 16.0763 1.81771 16.1439C1.7502 16.2114 1.67006 16.2649 1.58187 16.3014C1.49368 16.3379 1.39917 16.3567 1.30373 16.3566ZM22.8441 2.03147C22.7003 2.03156 22.5598 1.98899 22.4402 1.90912C22.3206 1.82926 22.2273 1.71569 22.1722 1.58278C22.1171 1.44987 22.1026 1.30359 22.1306 1.16243C22.1585 1.02128 22.2277 0.891588 22.3292 0.789764C22.4308 0.687941 22.5603 0.618557 22.7013 0.590386C22.8423 0.562216 22.9885 0.576524 23.1213 0.631502C23.2542 0.686479 23.3678 0.779657 23.4477 0.899252C23.5277 1.01885 23.5704 1.15949 23.5705 1.30339C23.5706 1.39894 23.5518 1.49356 23.5154 1.58186C23.4789 1.67016 23.4254 1.7504 23.358 1.81801C23.2905 1.88562 23.2104 1.93927 23.1222 1.97589C23.0341 2.01252 22.9396 2.0314 22.8441 2.03147V2.03147ZM28.4571 15.9148C29.2847 13.959 30.7209 12.3228 32.5521 11.2496C32.626 11.2064 32.689 11.1468 32.7362 11.0753C32.7835 11.0039 32.8137 10.9226 32.8247 10.8376C32.8356 10.7526 32.8269 10.6663 32.7992 10.5852C32.7716 10.5041 32.7257 10.4305 32.6652 10.3699L24.0648 1.76417C24.1688 1.487 24.1756 1.18264 24.0841 0.901077C23.9925 0.619517 23.808 0.377497 23.5608 0.214763C23.3137 0.0520297 23.0186 -0.0217426 22.724 0.0055623C22.4294 0.0328672 22.1529 0.159626 21.9398 0.36502C21.7267 0.570415 21.5898 0.842235 21.5514 1.13584C21.513 1.42944 21.5756 1.72737 21.7287 1.98071C21.8819 2.23404 22.1166 2.42771 22.3942 2.52991C22.6719 2.63211 22.976 2.63677 23.2566 2.54312L31.3777 10.6687C30.8014 11.0598 30.2634 11.5048 29.771 11.9977C28.8602 12.9067 28.1179 13.9705 27.5788 15.1394H2.51044C2.39883 14.8651 2.19732 14.637 1.93902 14.4926C1.68072 14.3481 1.38102 14.296 1.08917 14.3446C0.797321 14.3933 0.530701 14.5399 0.333139 14.7604C0.135577 14.9808 0.0188293 15.262 0.0020889 15.5576C-0.0146516 15.8533 0.0696112 16.1459 0.241025 16.3873C0.41244 16.6286 0.660803 16.8045 0.945289 16.8858C1.22977 16.9672 1.53345 16.9492 1.8064 16.8349C2.07934 16.7206 2.30532 16.5168 2.44717 16.2569H27.9415C28.0514 16.257 28.159 16.2246 28.2507 16.1639C28.3424 16.1031 28.4142 16.0167 28.4571 15.9153V15.9148ZM12.0654 20.2828C11.9218 20.2828 11.7813 20.2401 11.6619 20.1602C11.5424 20.0803 11.4493 19.9668 11.3943 19.8339C11.3393 19.7011 11.325 19.5549 11.353 19.4138C11.381 19.2728 11.4502 19.1433 11.5518 19.0416C11.6534 18.9399 11.7828 18.8706 11.9237 18.8426C12.0646 18.8145 12.2107 18.8289 12.3434 18.884C12.4762 18.939 12.5896 19.0322 12.6694 19.1518C12.7493 19.2713 12.7919 19.4119 12.7919 19.5557C12.792 19.7484 12.7157 19.9334 12.5796 20.0698C12.4436 20.2062 12.259 20.283 12.0664 20.2833L12.0654 20.2828ZM22.3852 35.3889C22.2415 35.3889 22.1009 35.3462 21.9814 35.2663C21.8618 35.1863 21.7687 35.0727 21.7137 34.9397C21.6586 34.8068 21.6442 34.6605 21.6723 34.5194C21.7003 34.3782 21.7696 34.2486 21.8712 34.1468C21.9729 34.0451 22.1024 33.9758 22.2434 33.9477C22.3844 33.9196 22.5306 33.934 22.6634 33.9891C22.7962 34.0442 22.9098 34.1374 22.9896 34.2571C23.0695 34.3767 23.1121 34.5174 23.1121 34.6613C23.1122 34.7569 23.0935 34.8515 23.0569 34.9398C23.0204 35.0281 22.9669 35.1084 22.8994 35.1759C22.8319 35.2435 22.7517 35.2971 22.6635 35.3336C22.5753 35.3702 22.4807 35.389 22.3852 35.3889ZM29.325 26.9831L22.863 33.448C22.6039 33.3459 22.3188 33.3296 22.0497 33.4015C21.7806 33.4734 21.5416 33.6297 21.3678 33.8475C21.1939 34.0654 21.0944 34.3332 21.0838 34.6118C21.0732 34.8904 21.1521 35.165 21.3089 35.3955C21.4657 35.6259 21.6921 35.8 21.955 35.8921C22.2179 35.9843 22.5033 35.9897 22.7695 35.9076C23.0357 35.8255 23.2685 35.6602 23.434 35.4359C23.5994 35.2116 23.6886 34.9401 23.6886 34.6613C23.6888 34.5277 23.6686 34.3949 23.6288 34.2673L30.5004 27.392C30.6046 27.2874 30.6634 27.1459 30.664 26.9982C30.6646 26.8504 30.6068 26.7084 30.5034 26.6031C29.5844 25.674 28.8619 24.569 28.3791 23.3543C27.8962 22.1395 27.6628 20.8398 27.6929 19.5328C27.6942 19.4582 27.6808 19.3842 27.6533 19.3149C27.6258 19.2456 27.5848 19.1825 27.5326 19.1293C27.4805 19.076 27.4183 19.0337 27.3497 19.0048C27.281 18.9758 27.2073 18.9609 27.1328 18.9608H13.2263C13.0915 18.6974 12.8711 18.4878 12.6015 18.3664C12.3319 18.245 12.029 18.2189 11.7427 18.2926C11.4563 18.3662 11.2035 18.5352 11.0257 18.7717C10.848 19.0081 10.7559 19.2981 10.7646 19.5939C10.7733 19.8897 10.8822 20.1737 11.0735 20.3994C11.2648 20.625 11.5271 20.7788 11.8173 20.8355C12.1075 20.8922 12.4083 20.8484 12.6703 20.7114C12.9323 20.5743 13.14 20.3521 13.2592 20.0813H26.5758C26.65 22.6345 27.6238 25.0792 29.325 26.9831Z" fill="white"/>
</svg>
