<svg width="116" height="48" viewBox="0 0 116 48" fill="none" xmlns="http://www.w3.org/2000/svg">
<path d="M25.7498 12.8239V35H22.1123V19.8118L15.3478 35H12.827L6.03062 19.8118V35H2.3931V12.8239H6.31779L14.1034 30.2138L21.857 12.8239H25.7498ZM62.7674 20.3861H59.5128V35H55.8433V20.3861H53.7693V17.4187H55.8433V16.1743C55.8433 14.1534 56.3751 12.6856 57.4387 11.7709C58.5236 10.835 60.2147 10.367 62.5121 10.367V13.3982C61.406 13.3982 60.6295 13.611 60.1828 14.0364C59.7361 14.4406 59.5128 15.1532 59.5128 16.1743V17.4187H62.7674V20.3861ZM82.1046 25.7786C82.1046 26.438 82.0621 27.0336 81.977 27.5654H68.5437C68.6501 28.9694 69.1712 30.0968 70.1072 30.9477C71.0432 31.7986 72.1919 32.224 73.5533 32.224C75.5103 32.224 76.893 31.405 77.7013 29.7671H81.626C81.0942 31.3838 80.1263 32.7133 78.7224 33.7556C77.3397 34.7766 75.6167 35.2872 73.5533 35.2872C71.8728 35.2872 70.3625 34.9149 69.0223 34.1704C67.7035 33.4046 66.6611 32.341 65.8954 30.9796C65.1508 29.5969 64.7786 28.0015 64.7786 26.1934C64.7786 24.3853 65.1402 22.8005 65.8634 21.4391C66.608 20.0564 67.6397 18.9928 68.9585 18.2483C70.2987 17.5038 71.8303 17.1315 73.5533 17.1315C75.2125 17.1315 76.6909 17.4931 77.9885 18.2164C79.2861 18.9396 80.2965 19.9607 81.0198 21.2795C81.743 22.5771 82.1046 24.0768 82.1046 25.7786ZM78.3076 24.6299C78.2863 23.2897 77.8077 22.2155 76.8717 21.4072C75.9358 20.5988 74.7764 20.1947 73.3937 20.1947C72.1387 20.1947 71.0645 20.5988 70.171 21.4072C69.2776 22.1942 68.7458 23.2685 68.5756 24.6299H78.3076ZM89.9281 20.3861V30.1181C89.9281 30.7775 90.077 31.2561 90.3748 31.5539C90.6939 31.8305 91.2257 31.9687 91.9702 31.9687H94.2038V35H91.3321C89.6941 35 88.4391 34.6171 87.5669 33.8513C86.6948 33.0855 86.2587 31.8411 86.2587 30.1181V20.3861H84.1847V17.4187H86.2587V13.0473H89.9281V17.4187H94.2038V20.3861H89.9281ZM101.8 20.3861V30.1181C101.8 30.7775 101.949 31.2561 102.247 31.5539C102.566 31.8305 103.098 31.9687 103.842 31.9687H106.076V35H103.204C101.566 35 100.311 34.6171 99.4389 33.8513C98.5668 33.0855 98.1307 31.8411 98.1307 30.1181V20.3861H96.0567V17.4187H98.1307V13.0473H101.8V17.4187H106.076V20.3861H101.8ZM111.279 15.0894C110.62 15.0894 110.067 14.866 109.62 14.4193C109.173 13.9726 108.95 13.4195 108.95 12.7601C108.95 12.1007 109.173 11.5476 109.62 11.1009C110.067 10.6542 110.62 10.4308 111.279 10.4308C111.917 10.4308 112.46 10.6542 112.906 11.1009C113.353 11.5476 113.576 12.1007 113.576 12.7601C113.576 13.4195 113.353 13.9726 112.906 14.4193C112.46 14.866 111.917 15.0894 111.279 15.0894ZM113.066 17.4187V35H109.428V17.4187H113.066Z" fill="white"/>
<g clip-path="url(#clip0_944_9065)">
<rect x="41.9116" y="26.0537" width="3.77584" height="2.51723" fill="black"/>
<path fill-rule="evenodd" clip-rule="evenodd" d="M42.8321 27.6474C43.1548 27.7349 43.3697 27.8507 43.7405 27.7304C44.1139 27.6093 44.1824 27.3967 44.3724 27.23C44.2965 27.5131 44.0259 27.8216 43.7672 27.8985C43.4131 28.0037 43.0143 27.8202 42.8321 27.6474ZM49.2541 20.6544L49.2266 20.9721C49.1629 21.8136 48.9769 22.6284 48.7879 23.3925C48.6769 23.8413 48.1816 24.0607 47.9006 23.9461C47.5892 23.8191 47.5276 23.2914 47.3669 23.0472C47.1632 22.7376 46.7265 22.6698 46.2842 22.8617C45.8224 23.0622 45.6279 23.0742 45.2062 22.8C44.6614 22.4458 44.3093 21.646 44.6765 20.809C45.1616 19.7036 46.3217 18.4321 47.3446 17.7107C48.3868 16.9758 48.6595 17.1024 48.9779 18.0724C49.2643 18.9444 49.2537 19.7084 49.254 20.6543L49.2541 20.6544ZM49.8187 20.7543C49.8267 20.6854 49.8289 20.6145 49.8343 20.5458C49.8446 20.4135 49.8438 20.2938 49.8491 20.1587C49.8874 19.1821 49.7597 18.1586 49.3847 17.3448C49.2049 16.9547 48.945 16.6852 48.439 16.6276C47.9206 16.5686 47.5314 16.8307 47.2096 17.0315C46.3808 17.5484 45.5769 18.1812 44.9063 18.8851C44.8309 18.9643 44.7856 19.0169 44.7125 19.097C44.6414 19.175 44.5796 19.2153 44.5068 19.2943L44.1336 19.732C44.006 19.8758 43.8584 20.0362 43.7852 20.1824C43.5662 20.1479 43.1808 19.9814 42.924 19.9028C41.4162 19.4414 39.6713 19.3685 38.1381 19.7755C37.3052 19.9966 36.9929 20.2595 36.6028 20.3888L36.0763 19.7835C35.9667 19.6705 35.8834 19.6107 35.7783 19.4938C35.3178 18.9824 34.8717 18.5972 34.3627 18.1116L34.2085 18.034C34.1722 17.9096 34.1598 17.9203 34.054 17.8831C33.9967 17.811 34.0073 17.8217 33.9249 17.7584C33.8377 17.6237 33.0272 17.0837 32.7651 16.95C32.1819 16.6527 31.7617 16.7051 31.3305 17.0588C30.6608 17.6083 30.478 19.1055 30.6253 20.1927L30.6733 20.6458L30.705 20.863C30.708 20.882 30.7188 20.9545 30.7231 20.97C30.7599 21.1045 30.7227 20.9889 30.7612 21.0495L30.7798 20.996C30.7768 20.9941 30.7539 21.0106 30.8594 21.0019C31.0073 20.9898 31.0233 20.9089 31.104 20.8359L30.996 20.0764C31.1029 19.5136 30.9163 19.2087 31.2704 18.2017C31.4748 17.6201 30.8594 21.9628 31.4024 23.0956C31.2704 24.4171 31.4024 25.1723 32.1575 26.6197C32.2806 27.1719 32.4219 27.819 32.9756 28.2305C33.4923 28.6146 36.2506 29.6963 37.0032 29.7033C41.9347 28.3804 37.0661 25.487 41.3454 26.1792C41.3672 26.9574 40.7791 28.6253 42.0771 29.1579C43.2651 30.1221 45.9675 29.9512 46.8954 30.7635C47.4051 31.2098 47.349 31.6222 47.1669 32.3518C47.5857 32.0566 48.2737 30.7604 48.5223 30.0586C48.8607 29.1029 49.0575 28.0185 48.8964 26.9321C48.6774 25.4566 48.6521 25.2105 49.1273 23.8752C49.4862 22.8667 49.6961 21.808 49.8187 20.7543ZM43.1497 27.2081C42.7137 27.2486 42.846 26.9087 42.972 26.8603C43.1956 26.7744 43.2843 26.9879 43.1497 27.2081ZM42.4088 28.0658C43.7762 28.5722 44.4019 27.9764 45.0594 26.9557C44.9368 27.3876 44.507 27.9705 44.1003 28.1897C43.3009 28.6205 42.7677 28.2071 42.4088 28.0658ZM44.6107 26.3109C44.7666 26.3415 45.5201 26.451 45.5239 26.451C45.2312 26.4869 44.6362 26.4061 44.2844 26.4116C43.8838 26.4179 43.4922 26.4662 43.1469 26.5955C42.4778 26.8461 42.2437 27.4135 42.1707 28.2305C41.8499 27.6953 42.6253 26.3815 43.175 26.4495C44.1095 26.2517 43.8161 26.1553 44.6107 26.3109Z" fill="white"/>
<path fill-rule="evenodd" clip-rule="evenodd" d="M30.7614 21.0497C30.694 21.5878 31.2596 22.8233 31.2224 23.3025C31.1453 24.2963 31.1998 25.3736 31.6587 26.2397C31.7984 26.5034 31.8124 26.4314 31.752 26.767C31.5799 27.7209 31.8437 28.7339 32.3301 29.5522L32.5317 29.8657C32.537 29.8721 32.545 29.8814 32.5501 29.8871C32.5552 29.8931 32.5658 29.9033 32.57 29.9081C32.5745 29.9129 32.588 29.9351 32.5913 29.9288C32.5947 29.9224 32.6058 29.9428 32.6132 29.9496C32.5079 29.6197 32.3164 29.3023 32.1996 28.915C32.0891 28.5483 32.0054 28.1257 32.003 27.7162C32.0017 27.4851 32.0263 27.2711 32.0754 27.0469C32.2551 26.2262 32.3321 26.8565 31.9846 26.0678C31.3686 24.6693 31.7741 23.2924 31.7108 22.9861C31.6628 22.7534 31.4371 22.2625 31.3498 21.951C31.2562 21.6166 32.1996 17.7466 31.0247 17.9354C30.9439 18.0084 31.0074 20.9899 30.8596 21.0021C30.7542 21.0108 30.7771 20.9943 30.78 20.9961L30.7614 21.0497Z" fill="white"/>
<path fill-rule="evenodd" clip-rule="evenodd" d="M41.2897 29.6672C41.2853 29.9992 41.3618 31.2182 41.298 31.4166C41.1277 31.3744 41.0719 31.2399 40.7622 31.2763C40.5625 31.2999 40.3808 31.3754 40.1687 31.3741C39.9504 31.3727 39.7478 31.2842 39.5389 31.2716C39.259 31.2548 39.2001 31.3648 39.1067 31.3954C39.1028 31.3967 39.09 31.3979 39.0869 31.3987C39.0838 31.3994 39.0694 31.4049 39.0673 31.3989C39.0652 31.3928 39.0539 31.3995 39.0479 31.3974C38.993 31.25 39.0742 29.8644 39.0345 29.4761C39.0054 29.8495 38.9927 30.1838 38.9368 30.5542C38.7777 31.6093 38.7312 31.5421 39.5672 32.0628C39.7903 32.2018 39.6694 32.1913 39.7734 32.4377C39.8209 32.5503 39.9741 32.6739 40.0951 32.7108C40.2427 32.7559 40.4116 32.6488 40.499 32.5595C40.6493 32.4062 40.5608 32.2916 40.6796 32.1539C40.809 32.0037 41.1821 31.8683 41.364 31.6601C41.5826 31.41 41.4864 31.0467 41.4357 30.6998L41.3239 29.761C41.3214 29.7507 41.3163 29.7375 41.3141 29.7291L41.2899 29.6671L41.2897 29.6672Z" fill="white"/>
<path fill-rule="evenodd" clip-rule="evenodd" d="M38.126 33.5829C38.9462 34.2224 39.9925 33.5979 40.1718 33.5925C40.2292 33.5908 41.5244 34.2095 42.223 33.5836C41.7316 33.7277 41.4927 33.8248 40.9356 33.6319C40.7673 33.5736 40.5387 33.4677 40.4139 33.3792C40.2202 33.242 40.2474 33.1303 40.1792 32.896C40.1181 33.179 40.1303 33.2514 39.9047 33.3963C39.1209 33.9001 38.7279 33.7268 38.126 33.5828V33.5829Z" fill="white"/>
<path fill-rule="evenodd" clip-rule="evenodd" d="M42.7852 31.8823C44.0616 31.8973 44.8856 32.0284 46.0144 32.395C47.4063 32.8472 48.1219 33.3846 48.5972 33.5597C48.4853 33.4378 48.1405 33.2488 48.0029 33.1727C47.7968 33.0587 47.5966 32.9456 47.3806 32.8367C46.1404 32.2109 44.6058 31.6724 43.1709 31.7988C43.0217 31.812 42.8981 31.8089 42.7852 31.8823H42.7852Z" fill="white"/>
<path fill-rule="evenodd" clip-rule="evenodd" d="M31.8131 33.5233C31.9913 33.4648 32.2875 33.2868 32.4644 33.1936C33.0882 32.8654 33.7841 32.5628 34.4669 32.353C36.0375 31.8704 36.2515 31.959 37.7494 31.8892C37.4693 31.8621 37.2181 31.7889 36.8691 31.7795C36.0462 31.7572 35.1593 31.9621 34.4077 32.221C33.6732 32.474 33.0717 32.7766 32.411 33.1376L31.8787 33.4585C31.8307 33.4973 31.848 33.4826 31.813 33.5232L31.8131 33.5233Z" fill="white"/>
<path fill-rule="evenodd" clip-rule="evenodd" d="M42.7535 32.0449C42.7629 32.05 42.7756 32.0546 42.7832 32.0573L43.1661 32.1347C44.6381 32.4001 45.9545 33.1487 47.1389 33.9869C47.3231 34.1173 47.4715 34.2648 47.6737 34.3683L47.534 34.2147C47.4933 34.1782 47.464 34.1445 47.4219 34.1092C47.3413 34.0413 47.2827 34.0077 47.1708 33.9182C46.0435 33.017 44.2855 31.9747 42.7534 32.0449H42.7535Z" fill="white"/>
<path fill-rule="evenodd" clip-rule="evenodd" d="M33.6329 33.6848C34.3602 33.1781 35.1963 32.7401 36.0751 32.4407C36.4776 32.3036 36.7569 32.2159 37.1745 32.1401C37.3119 32.1152 37.4445 32.1151 37.5578 32.0379C36.5362 32.0148 35.4111 32.4817 34.6922 32.9026C34.3995 33.0739 32.7441 34.1135 32.5601 34.4609L33.633 33.6848H33.6329Z" fill="white"/>
<path fill-rule="evenodd" clip-rule="evenodd" d="M42.7104 32.2354C42.8804 32.3405 43.1832 32.4202 43.3785 32.5078C44.5076 33.0138 45.8732 34.0766 46.6231 35.0042C46.6728 35.0658 46.6609 35.0515 46.7276 35.1165C46.7337 35.1223 46.7862 35.1718 46.7882 35.1735C46.8447 35.223 46.7899 35.1862 46.8627 35.2321C46.7795 35.0741 46.2011 34.4083 46.0331 34.2341C45.2497 33.4211 43.8603 32.3449 42.7105 32.2354H42.7104Z" fill="white"/>
<path fill-rule="evenodd" clip-rule="evenodd" d="M33.5176 35.2003C33.6494 35.1258 33.8633 34.8467 33.9588 34.7316L34.6246 34.0753C35.3278 33.4872 36.1471 32.8542 37.0162 32.4893C37.2163 32.4052 37.4842 32.339 37.6541 32.2344C36.8252 32.2952 35.7101 33.0189 35.259 33.3858C34.8942 33.6827 33.7575 34.7388 33.5177 35.2002L33.5176 35.2003Z" fill="white"/>
<path fill-rule="evenodd" clip-rule="evenodd" d="M42.4087 28.0661C42.7676 28.2074 43.3008 28.6208 44.1002 28.1901C44.5069 27.9709 44.9366 27.3879 45.0593 26.9561C44.4018 27.9767 43.776 28.5726 42.4087 28.0661Z" fill="white"/>
<path d="M36.5209 27.8019C36.8918 27.9222 37.1066 27.8064 37.4293 27.7189C37.2472 27.8917 36.8484 28.0752 36.4943 27.97C36.2355 27.8931 35.965 27.5846 35.889 27.3015C36.0791 27.4682 36.1476 27.6808 36.5209 27.8019Z" fill="black"/>
<path d="M37.1117 27.2796C37.5478 27.3201 37.4155 26.9802 37.2895 26.9318C37.0659 26.8458 36.9772 27.0594 37.1117 27.2796Z" fill="black"/>
<path d="M34.7375 26.5225C34.7414 26.5225 35.4949 26.413 35.6508 26.3824C36.4453 26.2268 36.1519 26.3232 37.0865 26.521C37.6362 26.453 38.4116 27.7668 38.0908 28.302C38.0178 27.485 37.7836 26.9176 37.1145 26.667C36.7692 26.5377 36.3777 26.4894 35.9771 26.4831C35.6253 26.4776 35.0303 26.5584 34.7375 26.5225Z" fill="black"/>
</g>
<defs>
<clipPath id="clip0_944_9065">
<rect width="19.2778" height="18.613" fill="white" transform="translate(30.5786 16.6187)"/>
</clipPath>
</defs>
</svg>
