<svg width="32" height="32" viewBox="0 0 32 32" fill="none" xmlns="http://www.w3.org/2000/svg">
<path d="M32 21.5C32 24.5375 30.3135 27 27 27H5C1.6865 27 0 24.5375 0 21.5V10.5C0 7.4625 1.6865 5 5 5H27C30.3135 5 32 7.4625 32 10.5V21.5Z" fill="#EC1C24"/>
<path d="M6.48503 8.328L7.55453 10.5L9.95203 10.8475L8.21853 12.535L8.62703 14.925L6.48503 13.7975L4.34253 14.925L4.75153 12.535L3.01953 10.8475L5.41303 10.5L6.48503 8.328Z" fill="#F9CB38"/>
<path d="M10.2535 6.49695L10.55 7.09945L11.217 7.19595L10.7355 7.66545L10.848 8.32795L10.2535 8.01495L9.65952 8.32795L9.77202 7.66545L9.29102 7.19595L9.95652 7.09945L10.2535 6.49695Z" fill="#F9CB38"/>
<path d="M12.1788 8.66394L12.4758 9.26594L13.1398 9.36294L12.6603 9.83344L12.7733 10.4949L12.1788 10.1824L11.5848 10.4949L11.6973 9.83344L11.2168 9.36294L11.8813 9.26594L12.1788 8.66394Z" fill="#F9CB38"/>
<path d="M12.1788 12.142L12.4758 12.7455L13.1398 12.842L12.6603 13.3115L12.7733 13.974L12.1788 13.662L11.5848 13.974L11.6973 13.3115L11.2168 12.842L11.8813 12.7455L12.1788 12.142Z" fill="#F9CB38"/>
<path d="M10.2535 14.585L10.55 15.1875L11.217 15.2835L10.7355 15.7525L10.848 16.416L10.2535 16.105L9.65952 16.416L9.77202 15.7525L9.29102 15.2835L9.95652 15.1875L10.2535 14.585Z" fill="#F9CB38"/>
</svg>
