<svg width="32" height="32" viewBox="0 0 32 32" fill="none" xmlns="http://www.w3.org/2000/svg">
<path d="M13 8.88V10.57H31.9825C31.956 10.025 31.899 9.336 31.695 8.88" fill="#EC1C24"/>
<path d="M30.8 7.18994H13V8.87994H31.695C31.492 8.24944 31.19 7.67444 30.8 7.18994Z" fill="#E6E7E8"/>
<path d="M27 5.5H13V7.19H30.8C29.9655 6.145 28.592 5.5 27 5.5Z" fill="#EC1C24"/>
<path d="M31.9825 10.5699H13V12.2599H32V11.1334C32 11.0329 31.9935 10.9349 31.9905 10.8364C31.9885 10.8094 31.9855 10.7399 31.9825 10.5699Z" fill="#E6E7E8"/>
<path d="M13 13.95H32V12.26H13V13.95Z" fill="#EC1C24"/>
<path d="M13 15.64H32V13.95H13V15.64Z" fill="#E6E7E8"/>
<path d="M13 15.64H32V17.33H13V15.64Z" fill="#EC1C24"/>
<path d="M0 17.33V19.02H32V17.33H13H0Z" fill="#E6E7E8"/>
<path d="M0 19.02H32V20.71H0V19.02Z" fill="#EC1C24"/>
<path d="M0.0025 21.7495C0.0025 21.7495 -0.002 22.159 0.01 22.4H31.99C32.004 22.153 31.9975 21.7495 31.9975 21.7495L32 20.71H0L0.0025 21.7495Z" fill="#E6E7E8"/>
<path d="M5.00004 27.5H27C28.5965 27.5 29.9235 26.92 30.83 25.78H1.16504C2.10104 26.945 3.45304 27.5 4.99754 27.5" fill="#EC1C24"/>
<path d="M1.16773 25.78H30.8327C31.2282 25.2775 31.5235 24.7038 31.7027 24.09H0.302734C0.485283 24.7019 0.779391 25.2749 1.17023 25.78" fill="#E6E7E8"/>
<path d="M0.299766 24.09H31.6998C31.8635 23.5403 31.9609 22.9729 31.9898 22.4H0.00976562C0.0592656 22.978 0.105266 23.4145 0.299766 24.09Z" fill="#EC1C24"/>
<path d="M13 5.5H5C1.6865 5.5 0 7.9625 0 11V17.33H13V5.5Z" fill="#176496"/>
<path d="M1.3989 8.48801L1.6709 8.27901L1.9424 8.48801L1.8369 8.15201L2.1074 7.94651H1.7734L1.6699 7.60901L1.5669 7.94651H1.2334L1.5049 8.15201L1.3989 8.48801Z" fill="white"/>
<path d="M3.19627 8.48801L3.46827 8.27901L3.73977 8.48801L3.63477 8.15201L3.90477 7.94651H3.57127L3.46777 7.60901L3.36477 7.94651H3.03027L3.30177 8.15201L3.19627 8.48801Z" fill="white"/>
<path d="M5.17815 8.48801L5.44965 8.27901L5.72165 8.48801L5.61615 8.15201L5.88615 7.94651H5.55465L5.44965 7.60901L5.34615 7.94651H5.01465L5.28315 8.15201L5.17815 8.48801Z" fill="white"/>
<path d="M7.14695 8.48801L7.41845 8.27901L7.69045 8.48801L7.58545 8.15201L7.85545 7.94651H7.52045L7.41845 7.60901L7.31545 7.94651H6.98145L7.25245 8.15201L7.14695 8.48801Z" fill="white"/>
<path d="M9.12105 8.48801L9.39306 8.27901L9.66456 8.48801L9.55956 8.15201L9.83006 7.94651H9.49556L9.39255 7.60901L9.28955 7.94651H8.95605L9.22605 8.15201L9.12105 8.48801Z" fill="white"/>
<path d="M2.35593 9.36555L2.62743 9.15705L2.89893 9.36555L2.79443 9.03005L3.06443 8.82455H2.73043L2.62693 8.48755L2.52543 8.82455H2.19043L2.46093 9.03005L2.35593 9.36555Z" fill="white"/>
<path d="M4.1528 9.36555L4.4243 9.15705L4.69581 9.36555L4.5908 9.03005L4.8608 8.82455H4.5248L4.4243 8.48755L4.3208 8.82455H3.9873L4.2578 9.03005L4.1528 9.36555Z" fill="white"/>
<path d="M6.13525 9.36555L6.40625 9.15705L6.67775 9.36555L6.57275 9.03005L6.84325 8.82455H6.50975L6.40625 8.48755L6.30275 8.82455H5.96875L6.23925 9.03005L6.13525 9.36555Z" fill="white"/>
<path d="M8.1025 9.36555L8.3745 9.15705L8.6465 9.36555L8.54 9.03005L8.811 8.82455H8.4775L8.374 8.48755L8.2715 8.82455H7.9375L8.208 9.03005L8.1025 9.36555Z" fill="white"/>
<path d="M10.0796 9.36555L10.3491 9.15705L10.6206 9.36555L10.5146 9.03005L10.7856 8.82455H10.4526L10.3486 8.48755L10.2461 8.82455H9.91211L10.1826 9.03005L10.0796 9.36555Z" fill="white"/>
<path d="M11.1939 8.48801L11.4654 8.27901L11.7374 8.48801L11.6319 8.15201L11.9019 7.94651H11.5704L11.4649 7.60901L11.3619 7.94651H11.0254L11.2989 8.15201L11.1939 8.48801Z" fill="white"/>
<path d="M1.37253 15.51L1.64453 15.3035L1.91603 15.51L1.81103 15.177L2.08103 14.971L1.74753 14.972L1.64353 14.635L1.54153 14.972L1.20703 14.971L1.47753 15.177L1.37253 15.51Z" fill="white"/>
<path d="M3.16988 15.51L3.44138 15.3035L3.71338 15.51L3.60788 15.177L3.87788 14.971L3.54488 14.972L3.44088 14.635L3.33838 14.972L3.00488 14.971L3.27488 15.177L3.16988 15.51Z" fill="white"/>
<path d="M5.1528 15.51L5.4243 15.3035L5.6963 15.51L5.5908 15.177L5.8608 14.971L5.5253 14.972L5.4238 14.635L5.3208 14.972L4.9873 14.971L5.2578 15.177L5.1528 15.51Z" fill="white"/>
<path d="M7.12058 15.51L7.39208 15.3035L7.66358 15.51L7.56008 15.177L7.82858 14.971L7.49458 14.972L7.39158 14.635L7.28858 14.972L6.95508 14.971L7.22508 15.177L7.12058 15.51Z" fill="white"/>
<path d="M9.09469 15.51L9.36669 15.3035L9.63869 15.51L9.53469 15.177L9.80319 14.971L9.46969 14.972L9.36619 14.635L9.26369 14.972L8.92969 14.971L9.19969 15.177L9.09469 15.51Z" fill="white"/>
<path d="M11.167 15.51L11.4385 15.3035L11.7105 15.51L11.605 15.177L11.8755 14.971L11.54 14.972L11.438 14.635L11.335 14.972L11 14.971L11.272 15.177L11.167 15.51Z" fill="white"/>
<path d="M1.3989 10.244L1.6709 10.035L1.9424 10.244L1.8369 9.90798L2.1074 9.70248L1.7734 9.70348L1.6699 9.36548L1.5669 9.70348L1.2334 9.70248L1.5049 9.90798L1.3989 10.244Z" fill="white"/>
<path d="M3.19627 10.244L3.46827 10.035L3.73977 10.244L3.63477 9.90798L3.90477 9.70248L3.57127 9.70348L3.46777 9.36548L3.36477 9.70348L3.03027 9.70248L3.30177 9.90798L3.19627 10.244Z" fill="white"/>
<path d="M5.17815 10.244L5.44965 10.035L5.72165 10.244L5.61615 9.90798L5.88615 9.70248L5.55465 9.70348L5.44965 9.36548L5.34615 9.70348L5.01465 9.70248L5.28315 9.90798L5.17815 10.244Z" fill="white"/>
<path d="M7.14695 10.244L7.41845 10.035L7.69045 10.244L7.58545 9.90798L7.85545 9.70248L7.52045 9.70348L7.41845 9.36548L7.31545 9.70348L6.98145 9.70248L7.25245 9.90798L7.14695 10.244Z" fill="white"/>
<path d="M9.12105 10.244L9.39306 10.035L9.66456 10.244L9.55956 9.90798L9.83006 9.70248L9.49556 9.70348L9.39255 9.36548L9.28955 9.70348L8.95605 9.70248L9.22605 9.90798L9.12105 10.244Z" fill="white"/>
<path d="M2.35593 11.122L2.62743 10.9135L2.89893 11.122L2.79443 10.7865L3.06443 10.58H2.73043L2.62693 10.244L2.52543 10.58H2.19043L2.46093 10.7865L2.35593 11.122Z" fill="white"/>
<path d="M4.1528 11.122L4.4243 10.9135L4.69581 11.122L4.5908 10.7865L4.8608 10.58H4.5248L4.4243 10.244L4.3208 10.58H3.9873L4.2578 10.7865L4.1528 11.122Z" fill="white"/>
<path d="M6.13525 11.122L6.40625 10.9135L6.67775 11.122L6.57275 10.7865L6.84325 10.58H6.50975L6.40625 10.244L6.30275 10.58H5.96875L6.23925 10.7865L6.13525 11.122Z" fill="white"/>
<path d="M8.1025 11.122L8.3745 10.9135L8.6465 11.122L8.54 10.7865L8.811 10.58H8.4775L8.374 10.244L8.2715 10.58H7.9375L8.208 10.7865L8.1025 11.122Z" fill="white"/>
<path d="M10.0796 11.122L10.3491 10.9135L10.6206 11.122L10.5146 10.7865L10.7856 10.58H10.4526L10.3486 10.244L10.2461 10.58H9.91211L10.1826 10.7865L10.0796 11.122Z" fill="white"/>
<path d="M11.1939 10.244L11.4654 10.035L11.7374 10.244L11.6319 9.90798L11.9019 9.70248L11.5704 9.70348L11.4649 9.36548L11.3619 9.70348L11.0254 9.70248L11.2989 9.90798L11.1939 10.244Z" fill="white"/>
<path d="M1.37253 11.9999L1.64453 11.7914L1.91603 11.9999L1.81053 11.6649L2.08103 11.4589L1.74703 11.4599L1.64353 11.1219L1.54153 11.4599L1.20703 11.4589L1.47753 11.6649L1.37253 11.9999Z" fill="white"/>
<path d="M3.16988 11.9999L3.44138 11.7914L3.71338 11.9999L3.60788 11.6649L3.87788 11.4589L3.54488 11.4599L3.44088 11.1219L3.33838 11.4599L3.00488 11.4589L3.27438 11.6649L3.16988 11.9999Z" fill="white"/>
<path d="M5.1528 11.9999L5.4243 11.7914L5.6958 11.9999L5.5908 11.6649L5.8608 11.4589L5.5253 11.4599L5.4238 11.1219L5.3208 11.4599L4.9873 11.4589L5.2578 11.6649L5.1528 11.9999Z" fill="white"/>
<path d="M7.12058 11.9999L7.39158 11.7914L7.66358 11.9999L7.56008 11.6649L7.82858 11.4589L7.49458 11.4599L7.39158 11.1219L7.28858 11.4599L6.95508 11.4589L7.22508 11.6649L7.12058 11.9999Z" fill="white"/>
<path d="M9.09469 11.9999L9.36669 11.7914L9.63819 11.9999L9.53469 11.6649L9.80319 11.4589L9.46919 11.4599L9.36619 11.1219L9.26369 11.4599L8.92969 11.4589L9.19969 11.6649L9.09469 11.9999Z" fill="white"/>
<path d="M2.32859 12.878L2.60009 12.67L2.87159 12.878L2.76709 12.545L3.03659 12.338H2.70259L2.59959 12L2.49709 12.338H2.16309L2.43359 12.545L2.32859 12.878Z" fill="white"/>
<path d="M4.12694 12.878L4.39844 12.67L4.66994 12.878L4.56494 12.545L4.83494 12.338H4.50044L4.39794 12L4.29494 12.338H3.96094L4.23194 12.545L4.12694 12.878Z" fill="white"/>
<path d="M6.10986 12.878L6.38036 12.67L6.65236 12.878L6.54536 12.545L6.81736 12.338H6.48386L6.38036 12L6.27736 12.338H5.94336L6.21386 12.545L6.10986 12.878Z" fill="white"/>
<path d="M8.07513 12.878L8.34813 12.67L8.62013 12.878L8.51513 12.545L8.78463 12.338H8.45113L8.34763 12L8.24513 12.338H7.91113L8.18163 12.545L8.07513 12.878Z" fill="white"/>
<path d="M10.0497 12.878L10.3227 12.67L10.5947 12.878L10.4892 12.545L10.7602 12.338H10.4267L10.3227 12L10.2197 12.338H9.88574L10.1562 12.545L10.0497 12.878Z" fill="white"/>
<path d="M11.167 11.9999L11.4385 11.7914L11.71 11.9999L11.605 11.6649L11.8755 11.4589L11.54 11.4599L11.438 11.1219L11.335 11.4599L11 11.4589L11.272 11.6649L11.167 11.9999Z" fill="white"/>
<path d="M1.37253 13.7566L1.64453 13.5501L1.91603 13.7566L1.81053 13.4211L2.08103 13.2151L1.74703 13.2161L1.64353 12.8781L1.54153 13.2161L1.20703 13.2151L1.47753 13.4211L1.37253 13.7566Z" fill="white"/>
<path d="M3.16988 13.7566L3.44138 13.5501L3.71338 13.7566L3.60788 13.4211L3.87788 13.2151L3.54488 13.2161L3.44088 12.8781L3.33838 13.2161L3.00488 13.2151L3.27438 13.4211L3.16988 13.7566Z" fill="white"/>
<path d="M5.1528 13.7566L5.4243 13.5501L5.6958 13.7566L5.5908 13.4211L5.8608 13.2151L5.5253 13.2161L5.4238 12.8781L5.3208 13.2161L4.9873 13.2151L5.2578 13.4211L5.1528 13.7566Z" fill="white"/>
<path d="M7.12058 13.7566L7.39158 13.5501L7.66358 13.7566L7.56008 13.4211L7.82858 13.2151L7.49458 13.2161L7.39158 12.8781L7.28858 13.2161L6.95508 13.2151L7.22508 13.4211L7.12058 13.7566Z" fill="white"/>
<path d="M9.09469 13.7566L9.36669 13.5501L9.63819 13.7566L9.53469 13.4211L9.80319 13.2151L9.46919 13.2161L9.36619 12.8781L9.26369 13.2161L8.92969 13.2151L9.19969 13.4211L9.09469 13.7566Z" fill="white"/>
<path d="M2.32859 14.635L2.60009 14.426L2.87159 14.635L2.76709 14.299L3.03659 14.095H2.70259L2.59959 13.7565L2.49709 14.095H2.16309L2.43359 14.299L2.32859 14.635Z" fill="white"/>
<path d="M4.12694 14.635L4.39844 14.426L4.66994 14.635L4.56494 14.299L4.83494 14.095H4.50044L4.39794 13.7565L4.29494 14.095H3.96094L4.23194 14.299L4.12694 14.635Z" fill="white"/>
<path d="M6.10986 14.635L6.38036 14.426L6.65236 14.635L6.54536 14.299L6.81736 14.095H6.48386L6.38036 13.7565L6.27736 14.095H5.94336L6.21386 14.299L6.10986 14.635Z" fill="white"/>
<path d="M8.07513 14.635L8.34813 14.426L8.62013 14.635L8.51513 14.299L8.78463 14.095H8.45113L8.34763 13.7565L8.24513 14.095H7.91113L8.18163 14.299L8.07513 14.635Z" fill="white"/>
<path d="M10.0497 14.635L10.3227 14.426L10.5947 14.635L10.4892 14.299L10.7602 14.095H10.4267L10.3227 13.7565L10.2197 14.095H9.88574L10.1562 14.299L10.0497 14.635Z" fill="white"/>
<path d="M11.167 13.7566L11.4385 13.5501L11.71 13.7566L11.605 13.4211L11.8755 13.2151L11.54 13.2161L11.438 12.8781L11.335 13.2161L11 13.2151L11.272 13.4211L11.167 13.7566Z" fill="white"/>
</svg>
