<svg width="109" height="50" viewBox="0 0 109 50" fill="none" xmlns="http://www.w3.org/2000/svg">
<path d="M55.5761 17.2633H59.3231V15.9177H55.5761C54.5776 15.9177 53.6199 16.3147 52.9138 17.0214C52.2077 17.7282 51.811 18.6867 51.811 19.6862C51.811 20.6857 52.2077 21.6442 52.9138 22.351C53.6199 23.0577 54.5776 23.4548 55.5761 23.4548H59.3231V19.3201H55.5761V20.6657H57.983V22.1085H55.5745C54.9326 22.1085 54.3169 21.8533 53.863 21.399C53.4091 20.9447 53.1541 20.3285 53.1541 19.6859C53.1541 19.0434 53.4091 18.4272 53.863 17.9729C54.3169 17.5186 54.9326 17.2633 55.5745 17.2633H55.5761Z" fill="white"/>
<path d="M62.4159 17.2633H67.8858V15.9177H62.4159C61.8795 15.9208 61.3663 16.1369 60.989 16.5184C60.6117 16.9 60.401 17.4158 60.4033 17.9527V21.4197C60.401 21.9566 60.6117 22.4724 60.989 22.854C61.3663 23.2355 61.8795 23.4516 62.4159 23.4548H67.8858V22.1091H62.4159C62.2341 22.1074 62.0603 22.0341 61.9321 21.9051C61.8039 21.776 61.7317 21.6017 61.731 21.4197V19.9986H66.5484V18.6529H61.731V17.9532C61.7315 17.7712 61.8037 17.5967 61.9319 17.4676C62.0602 17.3384 62.234 17.265 62.4159 17.2633Z" fill="white"/>
<path d="M68.9541 15.932V17.2777H72.0264V23.4686H73.3649V17.2766H76.4371V15.932H68.9541Z" fill="white"/>
<path d="M83.6647 15.9177V18.6524H78.8477V15.9177H77.5093V23.4548H78.8477V19.9986H83.6647V23.4548H85.0031V15.9177H83.6647Z" fill="white"/>
<path d="M92.6032 22.1085L89.4663 15.9177L86.3295 22.1085L85.6445 23.4542H87.1435L87.8285 22.1085L89.4663 18.8782L91.1047 22.1085L91.7897 23.4542H93.2886L92.6032 22.1085Z" fill="white"/>
<path d="M100.441 17.9956V17.9527C100.441 17.4147 100.228 16.8986 99.8492 16.5173C99.47 16.136 98.9554 15.9204 98.4179 15.9177H95.3781C94.8417 15.9207 94.3283 16.1367 93.9509 16.5183C93.5734 16.8998 93.3628 17.4158 93.3651 17.9527V17.9956C93.3622 18.4067 93.4854 18.8087 93.7181 19.1475C93.7917 19.2651 93.8779 19.3743 93.9752 19.4732C94.3497 19.8402 94.8534 20.0451 95.3776 20.0437H98.0751C98.349 20.0437 98.6116 20.1526 98.8053 20.3464C98.9989 20.5402 99.1078 20.8031 99.1078 21.0772C99.1078 21.3513 98.9989 21.6142 98.8053 21.808C98.6116 22.0018 98.349 22.1107 98.0751 22.1107H95.7307C95.4574 22.1107 95.1953 22.0021 95.002 21.8086C94.8088 21.6152 94.7002 21.3529 94.7002 21.0794H93.3618C93.3605 21.7089 93.609 22.3133 94.0527 22.7595C94.4964 23.2057 95.099 23.4574 95.7279 23.4591H98.0724C98.5213 23.4564 98.9603 23.3267 99.3386 23.0849C99.7169 22.8432 100.019 22.4992 100.211 22.0928C100.402 21.6864 100.475 21.2341 100.42 20.7882C100.366 20.3422 100.186 19.9208 99.9028 19.5725C99.8708 19.5399 99.8486 19.5079 99.8171 19.4759C99.5968 19.2315 99.3277 19.0362 99.0271 18.9027C98.7266 18.7691 98.4013 18.7003 98.0724 18.7007H95.3749C95.1931 18.6991 95.0193 18.626 94.891 18.4971C94.7627 18.3681 94.6903 18.1938 94.6894 18.0119V17.969C94.6903 17.787 94.7627 17.6127 94.891 17.4838C95.0193 17.3549 95.1931 17.2817 95.3749 17.2801H98.4146C98.5964 17.2817 98.7703 17.3549 98.8986 17.4838C99.0269 17.6127 99.0993 17.787 99.1001 17.969V18.0119L100.441 17.9956Z" fill="white"/>
<path d="M107.66 15.9177V18.6524H102.843V15.9177H101.505V23.4548H102.843V19.9986H107.66V23.4548H109V15.9177H107.66Z" fill="white"/>
<path d="M56.7122 24.8085V28.6626H56.2572V25.8323C56.2572 25.7961 56.2572 25.7557 56.2572 25.7112C56.2572 25.6667 56.2608 25.6228 56.268 25.5793L54.9518 27.9878C54.9362 28.0244 54.9101 28.0554 54.8767 28.077C54.8434 28.0986 54.8044 28.1097 54.7647 28.1089H54.6898C54.6501 28.1097 54.6111 28.0986 54.5778 28.077C54.5445 28.0554 54.5183 28.0244 54.5027 27.9878L53.1599 25.569C53.1703 25.6564 53.1757 25.7443 53.1762 25.8323V28.6626H52.7212V24.8085H53.1035C53.1402 24.807 53.1769 24.8116 53.212 24.8221C53.2441 24.8381 53.2696 24.8648 53.2841 24.8975L54.6085 27.268C54.6298 27.3111 54.6504 27.356 54.6703 27.4027C54.6902 27.4493 54.7099 27.4968 54.7294 27.5449C54.7471 27.4964 54.7652 27.449 54.7836 27.4027C54.8024 27.3557 54.8238 27.3099 54.8477 27.2653L56.1492 24.8975C56.1624 24.8647 56.1871 24.8379 56.2186 24.8221C56.2539 24.812 56.2905 24.8074 56.3271 24.8085H56.7122Z" fill="white"/>
<path d="M58.963 27.4334C58.7747 27.4376 58.5869 27.4558 58.4012 27.4876C58.2706 27.5077 58.143 27.5442 58.0215 27.5962C57.9389 27.6304 57.8661 27.685 57.81 27.7547C57.7677 27.8143 57.7453 27.8857 57.746 27.9588C57.7444 28.0225 57.7563 28.0857 57.7808 28.1445C57.8021 28.194 57.8341 28.2381 57.8746 28.2737C57.9168 28.3066 57.9648 28.3313 58.0161 28.3464C58.0739 28.3611 58.1333 28.3684 58.1929 28.3681C58.2702 28.3689 58.3473 28.3608 58.4228 28.3442C58.4907 28.3269 58.5562 28.3016 58.6181 28.2688C58.6808 28.2364 58.7401 28.1977 58.7949 28.1532C58.8541 28.1065 58.9095 28.0553 58.9608 28.0001L58.963 27.4334ZM57.425 26.3206C57.5643 26.1823 57.7287 26.0717 57.9093 25.9949C58.0919 25.921 58.2872 25.8841 58.4841 25.8863C58.6225 25.8839 58.76 25.9095 58.8882 25.9618C59.0013 26.0088 59.1026 26.0804 59.1848 26.1713C59.2677 26.2658 59.3296 26.3768 59.3665 26.497C59.4087 26.6326 59.4294 26.774 59.4278 26.9161V28.658H59.2163C59.1789 28.6602 59.1415 28.6528 59.1078 28.6363C59.0782 28.6135 59.0574 28.5813 59.0487 28.5451L58.9945 28.2872C58.9222 28.3535 58.8526 28.4126 58.7857 28.4647C58.7186 28.5146 58.6468 28.5578 58.5714 28.5939C58.4943 28.6287 58.4135 28.655 58.3307 28.6721C58.2385 28.6926 58.1442 28.7025 58.0497 28.7014C57.9493 28.7021 57.8493 28.6876 57.7531 28.6585C57.6639 28.63 57.5812 28.5842 57.5096 28.5239C57.44 28.462 57.3845 28.386 57.3469 28.3008C57.3055 28.1984 57.2854 28.0887 57.2878 27.9784C57.2882 27.8691 57.3188 27.762 57.3762 27.669C57.4472 27.5571 57.5458 27.4655 57.6625 27.403C57.8243 27.3148 57.9983 27.2513 58.1788 27.2146C58.4355 27.1594 58.6972 27.1307 58.9597 27.1289V26.9166C58.972 26.746 58.9236 26.5766 58.8231 26.4384C58.7735 26.3825 58.7118 26.3388 58.6427 26.3106C58.5736 26.2824 58.4989 26.2704 58.4245 26.2755C58.3237 26.2728 58.2232 26.2883 58.1278 26.3211C58.0557 26.3466 57.9866 26.3799 57.9217 26.4205C57.8646 26.4566 57.8147 26.4898 57.772 26.5198C57.7365 26.5466 57.6934 26.5616 57.6489 26.5627C57.6194 26.5634 57.5904 26.5549 57.566 26.5383C57.5427 26.5203 57.5227 26.4985 57.5069 26.4737L57.425 26.3206Z" fill="white"/>
<path d="M60.6358 24.7029V27.0332H60.7589C60.7889 27.0341 60.8189 27.0295 60.8473 27.0196C60.8773 27.0049 60.9038 26.9838 60.9248 26.9578L61.7806 26.035C61.8023 26.0074 61.8285 25.9837 61.8582 25.9649C61.8924 25.9457 61.9313 25.9365 61.9704 25.9383H62.401L61.4031 27.0055C61.3602 27.0616 61.3077 27.1098 61.2481 27.1478C61.2798 27.169 61.3086 27.1944 61.3337 27.2232C61.3619 27.2518 61.387 27.2833 61.4086 27.3171L62.4677 28.6611H62.0426C62.0055 28.6621 61.9686 28.6557 61.9341 28.6421C61.9024 28.6247 61.8765 28.5985 61.8592 28.5667L60.9682 27.4512C60.9487 27.4199 60.921 27.3947 60.888 27.3784C60.8506 27.3636 60.8104 27.3572 60.7703 27.3594H60.6341V28.6622H60.1553V24.7029H60.6358Z" fill="white"/>
<path d="M63.377 25.937V28.6598H62.9009V25.937H63.377ZM63.479 25.082C63.4793 25.1277 63.4691 25.1728 63.4492 25.2139C63.4313 25.2544 63.4061 25.2912 63.3748 25.3225C63.3438 25.3536 63.307 25.3783 63.2664 25.3952C63.2252 25.4131 63.1806 25.4222 63.1357 25.4218C63.0906 25.4222 63.0459 25.4131 63.0045 25.3952C62.9655 25.3775 62.93 25.3528 62.8998 25.3225C62.8698 25.2906 62.8454 25.2539 62.8277 25.2139C62.8099 25.1723 62.8008 25.1275 62.8008 25.0823C62.8008 25.037 62.8099 24.9923 62.8277 24.9506C62.8613 24.869 62.9242 24.8028 63.0039 24.765C63.0453 24.7469 63.09 24.7377 63.1352 24.7379C63.1801 24.7377 63.2247 24.7469 63.2658 24.765C63.3487 24.8011 63.4147 24.8675 63.4503 24.9506C63.4698 24.9918 63.4796 25.037 63.479 25.0826V25.082Z" fill="white"/>
<path d="M64.6028 26.3336C64.6603 26.2687 64.7228 26.2084 64.7899 26.1534C64.8546 26.1006 64.9246 26.0546 64.9987 26.0161C65.073 25.977 65.1519 25.9472 65.2335 25.9276C65.3222 25.9055 65.4133 25.8948 65.5047 25.8956C65.6389 25.8929 65.7721 25.9186 65.8957 25.971C66.0059 26.0163 66.1032 26.0883 66.1788 26.1806C66.2589 26.2759 66.3183 26.3868 66.3534 26.5063C66.3936 26.6432 66.4134 26.7853 66.412 26.928V28.6618H65.9331V26.928C65.9438 26.7568 65.8934 26.5874 65.791 26.4498C65.7383 26.3902 65.6724 26.3436 65.5986 26.3137C65.5249 26.2839 65.4452 26.2716 65.3659 26.2777C65.2273 26.2771 65.091 26.3123 64.97 26.3798C64.843 26.4525 64.7291 26.5461 64.6331 26.6566V28.6618H64.1543V25.9385H64.4406C64.4703 25.9361 64.4997 25.945 64.523 25.9634C64.5464 25.9818 64.5619 26.0084 64.5665 26.0378L64.6028 26.3336Z" fill="white"/>
<path d="M68.0875 27.3298C68.1738 27.3315 68.2597 27.3179 68.3413 27.2896C68.4102 27.2654 68.4731 27.2269 68.5262 27.1767C68.5757 27.1283 68.6138 27.0695 68.638 27.0046C68.6635 26.9331 68.6762 26.8575 68.6754 26.7815C68.679 26.7083 68.6674 26.635 68.6411 26.5665C68.6149 26.498 68.5746 26.4357 68.523 26.3837C68.4639 26.3316 68.3952 26.2918 68.3208 26.2665C68.2463 26.2411 68.1676 26.2308 68.0891 26.236C67.9282 26.2249 67.7695 26.278 67.6476 26.3837C67.5967 26.4361 67.5571 26.4985 67.5314 26.567C67.5056 26.6355 67.4943 26.7085 67.498 26.7815C67.4971 26.8575 67.5098 26.9331 67.5354 27.0046C67.5609 27.0694 67.6 27.1281 67.6498 27.1767C67.7029 27.2269 67.7659 27.2654 67.8347 27.2896C67.916 27.3178 68.0015 27.3313 68.0875 27.3298ZM68.946 28.8079C68.9495 28.7487 68.9301 28.6903 68.8918 28.645C68.8498 28.6009 68.7977 28.5677 68.7399 28.5484C68.6698 28.5235 68.597 28.5073 68.523 28.5001C68.4394 28.4893 68.3499 28.4811 68.2556 28.4757L67.9725 28.4594C67.8765 28.454 67.7833 28.4453 67.6943 28.4328C67.601 28.4746 67.5172 28.535 67.448 28.6103C67.3864 28.6778 67.3528 28.7664 67.3542 28.8578C67.354 28.9173 67.3698 28.9758 67.3998 29.0272C67.4353 29.0846 67.485 29.1319 67.544 29.1645C67.6188 29.2079 67.7002 29.2387 67.7849 29.2557C67.8981 29.2805 68.0139 29.2922 68.1298 29.2905C68.2459 29.2918 68.3617 29.2802 68.4752 29.2557C68.5656 29.2369 68.6523 29.2033 68.7318 29.1564C68.7974 29.1191 68.8531 29.0666 68.8944 29.0033C68.93 28.9447 68.9481 28.877 68.9465 28.8084L68.946 28.8079ZM69.4308 26.0449V26.2224C69.4308 26.2814 69.3932 26.3191 69.318 26.3353L69.0105 26.3755C69.0719 26.4971 69.1029 26.6318 69.1011 26.768C69.1028 26.8933 69.0763 27.0174 69.0235 27.1311C68.9746 27.2372 68.9036 27.3316 68.8152 27.408C68.7209 27.4879 68.6116 27.5482 68.4937 27.5855C68.3623 27.6277 68.225 27.6487 68.087 27.6473C67.966 27.6481 67.8454 27.6328 67.7285 27.6017C67.678 27.6319 67.6335 27.6711 67.5972 27.7174C67.5689 27.7515 67.5529 27.7941 67.5517 27.8384C67.5505 27.8677 67.5571 27.8969 67.5708 27.9228C67.5845 27.9487 67.6049 27.9706 67.6298 27.9861C67.6942 28.0223 67.7648 28.046 67.838 28.0561C67.9344 28.0713 68.0317 28.0802 68.1293 28.0827C68.2377 28.0865 68.3527 28.0925 68.4666 28.1017C68.5799 28.1084 68.6927 28.1218 68.8045 28.1419C68.9068 28.1589 69.0059 28.1915 69.0984 28.2385C69.1888 28.2837 69.2639 28.3543 69.3148 28.4416C69.3657 28.529 69.39 28.6293 69.3847 28.7303C69.3843 28.8488 69.3541 28.9653 69.2969 29.069C69.2359 29.1827 69.1509 29.2818 69.0479 29.3594C68.9276 29.4512 68.7917 29.5204 68.6466 29.5635C68.4746 29.6178 68.2949 29.6442 68.1146 29.6417C67.9397 29.6444 67.7653 29.6245 67.5956 29.5825C67.4647 29.5507 67.34 29.4971 67.2268 29.424C67.1356 29.3652 67.0593 29.2861 67.0039 29.1928C66.9567 29.1101 66.9318 29.0166 66.9318 28.9213C66.9286 28.7956 66.9736 28.6734 67.0576 28.5799C67.1531 28.479 67.2713 28.4025 67.4025 28.3568C67.328 28.3252 67.2621 28.2765 67.21 28.2146C67.1605 28.1429 67.1361 28.0568 67.1406 27.9698C67.1408 27.9285 67.1479 27.8876 67.1617 27.8487C67.177 27.8037 67.1988 27.7611 67.2263 27.7223C67.2576 27.6778 67.2939 27.6371 67.3347 27.6012C67.3802 27.5616 67.4307 27.5282 67.4849 27.5019C67.3562 27.4315 67.2481 27.3285 67.1715 27.2033C67.0949 27.0717 67.0558 26.9214 67.0587 26.7691C67.0569 26.645 67.0824 26.5222 67.1335 26.4092C67.1835 26.3023 67.2565 26.2077 67.3472 26.1323C67.4432 26.0526 67.5537 25.9923 67.6726 25.9548C67.8066 25.9124 67.9464 25.8915 68.087 25.8929C68.198 25.892 68.3086 25.9055 68.4161 25.9331C68.514 25.9566 68.6078 25.9947 68.6944 26.046L69.4308 26.0449Z" fill="white"/>
<path d="M71.9247 28.6593H71.4058V24.8053H71.9247V28.6593Z" fill="white"/>
<path d="M74.478 26.587C74.4045 26.4805 74.305 26.3945 74.1889 26.3373C74.0798 26.2877 73.9611 26.2629 73.8413 26.2646C73.7298 26.2587 73.6185 26.2804 73.5173 26.3278C73.4161 26.3751 73.3281 26.4466 73.261 26.536C73.1114 26.7653 73.0399 27.0368 73.0571 27.31C73.0548 27.4636 73.07 27.617 73.1026 27.7671C73.1271 27.8785 73.1726 27.9843 73.2366 28.0787C73.2917 28.1563 73.3667 28.2176 73.4536 28.2562C73.5458 28.2944 73.645 28.3129 73.7448 28.3105C73.8886 28.3138 74.0304 28.2761 74.1537 28.2019C74.2806 28.1224 74.3911 28.0192 74.4791 27.8979L74.478 26.587ZM74.9536 24.7029V28.6622H74.6705C74.6407 28.6643 74.6112 28.6553 74.5876 28.637C74.564 28.6187 74.5479 28.5923 74.5425 28.5629L74.4997 28.2323C74.3889 28.3679 74.2548 28.4826 74.1038 28.571C73.9473 28.6593 73.7699 28.7039 73.5902 28.7002C73.4446 28.7023 73.3003 28.6721 73.1677 28.6117C73.0396 28.5503 72.928 28.4591 72.8423 28.3458C72.7468 28.2154 72.677 28.068 72.6368 27.9115C72.586 27.7166 72.5616 27.5158 72.5642 27.3144C72.5625 27.125 72.5898 26.9365 72.6449 26.7553C72.6929 26.5917 72.7709 26.4386 72.8749 26.3037C72.973 26.1777 73.0984 26.0756 73.2415 26.0051C73.3948 25.9305 73.5635 25.8933 73.7339 25.8965C73.8803 25.8924 74.0257 25.9218 74.1591 25.9823C74.2795 26.0386 74.3877 26.1181 74.4775 26.2163V24.7083L74.9536 24.7029Z" fill="white"/>
<path d="M77.5139 27.0028C77.515 26.8997 77.4987 26.7971 77.4657 26.6993C77.4375 26.6107 77.3908 26.529 77.3285 26.46C77.2694 26.3917 77.1951 26.3383 77.1116 26.3042C77.0193 26.266 76.9201 26.2475 76.8203 26.2499C76.721 26.2449 76.6217 26.2602 76.5285 26.2948C76.4352 26.3294 76.35 26.3826 76.278 26.4513C76.1371 26.6035 76.0506 26.7982 76.0323 27.005L77.5139 27.0028ZM77.899 28.2795C77.8384 28.3525 77.7671 28.4161 77.6875 28.4679C77.604 28.5204 77.5151 28.5637 77.4223 28.5971C77.3286 28.6315 77.2318 28.6567 77.1332 28.6725C77.0351 28.6902 76.9357 28.6991 76.836 28.6991C76.6587 28.7009 76.4826 28.6691 76.3171 28.6052C76.1624 28.5422 76.023 28.4469 75.9081 28.3256C75.7888 28.1931 75.6978 28.0376 75.6408 27.8686C75.5732 27.6678 75.5405 27.4568 75.5442 27.2449C75.5429 27.064 75.5718 26.8842 75.6299 26.7129C75.6844 26.5552 75.7698 26.41 75.881 26.2857C75.9914 26.1626 76.1275 26.0653 76.2796 26.0007C76.4469 25.9288 76.6275 25.8931 76.8095 25.896C76.9633 25.8943 77.116 25.9225 77.2591 25.979C77.3946 26.0303 77.5171 26.1111 77.6175 26.2157C77.7232 26.3238 77.8044 26.4534 77.8556 26.5957C77.9152 26.7611 77.9442 26.936 77.9413 27.1119C77.9458 27.1633 77.9374 27.215 77.9169 27.2623C77.9064 27.2759 77.8925 27.2865 77.8766 27.293C77.8607 27.2996 77.8434 27.3019 77.8263 27.2997H76.0155C76.0177 27.4519 76.041 27.603 76.0849 27.7486C76.1224 27.8656 76.1823 27.9742 76.2612 28.0683C76.3349 28.1516 76.4265 28.2169 76.5291 28.2594C76.64 28.302 76.758 28.3229 76.8767 28.3213C76.9807 28.3235 77.0844 28.3099 77.1843 28.2811C77.2615 28.2567 77.3368 28.2262 77.4093 28.1899C77.4716 28.1579 77.5232 28.1281 77.5644 28.1015C77.5957 28.0771 77.6334 28.0623 77.6729 28.0586C77.6906 28.0581 77.7082 28.062 77.7241 28.07C77.7399 28.078 77.7537 28.0897 77.764 28.1042L77.899 28.2795Z" fill="white"/>
<path d="M80.0024 27.4334C79.8143 27.4377 79.6266 27.4558 79.4411 27.4877C79.3105 27.5077 79.1829 27.5442 79.0615 27.5962C78.9788 27.6306 78.9062 27.6851 78.85 27.7547C78.8079 27.8144 78.7855 27.8858 78.786 27.9588C78.7842 28.0224 78.7959 28.0857 78.8201 28.1445C78.8414 28.194 78.8735 28.2381 78.914 28.2737C78.9563 28.3067 79.0046 28.3314 79.0561 28.3464C79.1137 28.3611 79.1729 28.3684 79.2323 28.3681C79.3096 28.3689 79.3867 28.3609 79.4622 28.3442C79.5301 28.3269 79.5957 28.3016 79.6575 28.2688C79.7202 28.2363 79.7794 28.1976 79.8343 28.1532C79.8934 28.1064 79.9489 28.0552 80.0003 28.0001L80.0024 27.4334ZM78.4644 26.3206C78.6037 26.1824 78.7678 26.0719 78.9481 25.9949C79.1309 25.921 79.3265 25.8842 79.5235 25.8863C79.6619 25.8838 79.7994 25.9095 79.9276 25.9618C80.0409 26.0088 80.1424 26.0803 80.2248 26.1713C80.3075 26.2659 80.3695 26.3769 80.4065 26.497C80.4485 26.6327 80.4691 26.774 80.4677 26.9161V28.658H80.2562C80.2188 28.6602 80.1814 28.6528 80.1478 28.6363C80.1184 28.6135 80.0977 28.5813 80.0892 28.5451L80.035 28.2872C79.9626 28.3535 79.8932 28.4126 79.8267 28.4647C79.7596 28.5143 79.6881 28.5576 79.613 28.5939C79.5359 28.6286 79.4551 28.6549 79.3723 28.6721C79.2799 28.6926 79.1854 28.7025 79.0908 28.7014C78.9903 28.7022 78.8903 28.6877 78.7941 28.6585C78.7047 28.6301 78.6218 28.5844 78.55 28.5239C78.4807 28.4619 78.4252 28.3859 78.3874 28.3008C78.3464 28.1984 78.3265 28.0887 78.3288 27.9784C78.3294 27.8691 78.36 27.7621 78.4172 27.669C78.4882 27.5572 78.5869 27.4655 78.7036 27.403C78.8653 27.3147 79.0393 27.2512 79.2199 27.2146C79.4766 27.1594 79.7382 27.1306 80.0008 27.1289V26.9166C80.013 26.7461 79.9649 26.5768 79.8647 26.4384C79.815 26.3825 79.7532 26.3387 79.684 26.3105C79.6148 26.2822 79.5401 26.2703 79.4655 26.2755C79.3646 26.2728 79.2638 26.2883 79.1683 26.3211C79.0964 26.3467 79.0275 26.38 78.9628 26.4205C78.906 26.4567 78.8559 26.4898 78.8125 26.5198C78.7771 26.5465 78.7343 26.5615 78.69 26.5627C78.6605 26.5634 78.6315 26.5549 78.607 26.5383C78.584 26.5202 78.5642 26.4984 78.5485 26.4737L78.4644 26.3206Z" fill="white"/>
<path d="M82.7684 26.3862C82.7594 26.4046 82.7453 26.4199 82.7278 26.4305C82.7103 26.441 82.6901 26.4461 82.6697 26.4453C82.6373 26.4436 82.6058 26.4335 82.5785 26.416C82.5449 26.3961 82.503 26.3746 82.4527 26.3514C82.3972 26.3233 82.339 26.3008 82.2791 26.2841C82.201 26.261 82.1198 26.25 82.0384 26.2515C81.9648 26.2505 81.8915 26.2615 81.8214 26.2841C81.7614 26.3016 81.705 26.3297 81.6549 26.3672C81.6119 26.4016 81.5766 26.4447 81.5514 26.4937C81.5278 26.5412 81.5157 26.5936 81.5161 26.6467C81.5137 26.7102 81.5346 26.7723 81.5747 26.8215C81.6208 26.8717 81.676 26.9128 81.7374 26.9426C81.8096 26.9792 81.8846 27.0097 81.9619 27.0338C82.0454 27.0587 82.1311 27.0864 82.219 27.1168C82.3079 27.1456 82.3947 27.1776 82.4787 27.2134C82.5596 27.2474 82.6351 27.2928 82.7032 27.3481C82.7734 27.4059 82.8295 27.4791 82.8671 27.562C82.9047 27.6449 82.9228 27.7353 82.9202 27.8263C82.9212 27.9461 82.8986 28.0649 82.8535 28.1759C82.8089 28.2817 82.7413 28.3763 82.6556 28.4527C82.5614 28.5339 82.4523 28.596 82.3345 28.6356C82.1929 28.6829 82.0443 28.7056 81.8952 28.7029C81.7197 28.7055 81.5455 28.6745 81.3816 28.6118C81.2387 28.5553 81.1068 28.4743 80.9917 28.3724L81.1034 28.1894C81.116 28.1676 81.1334 28.1491 81.1544 28.1351C81.1768 28.1218 81.2026 28.1152 81.2286 28.1161C81.2657 28.1177 81.3014 28.1308 81.3307 28.1536C81.3664 28.1786 81.4087 28.2079 81.4586 28.2367C81.5183 28.2705 81.5811 28.2983 81.6462 28.3197C81.734 28.3468 81.8256 28.3594 81.9174 28.3572C81.9999 28.3587 82.0821 28.347 82.1609 28.3224C82.2245 28.3007 82.2835 28.2669 82.3345 28.2231C82.3792 28.1844 82.4141 28.1357 82.4364 28.0809C82.4595 28.0265 82.4711 27.9679 82.4706 27.9088C82.4735 27.8415 82.4517 27.7754 82.4093 27.7231C82.3664 27.6701 82.3126 27.6269 82.2515 27.5967C82.179 27.5583 82.1026 27.5277 82.0237 27.5055L81.7639 27.4219C81.6765 27.3933 81.5899 27.3611 81.5042 27.3253C81.4231 27.2894 81.3475 27.2422 81.2796 27.1852C81.2121 27.129 81.1567 27.0595 81.117 26.9811C81.0754 26.8872 81.0553 26.7852 81.0584 26.6826C81.0588 26.5781 81.0814 26.4749 81.1248 26.3799C81.1682 26.2849 81.2313 26.2003 81.31 26.1316C81.3985 26.0542 81.5013 25.9948 81.6126 25.9568C81.7442 25.9118 81.8825 25.8899 82.0215 25.8922C82.1852 25.8895 82.3479 25.9186 82.5004 25.978C82.6374 26.03 82.7627 26.1086 82.8692 26.2092L82.7684 26.3862Z" fill="white"/>
<path d="M88.0932 24.8082V28.6623H87.5742V26.9095H85.5063V28.6623H84.9873V24.8082H85.5063V26.5257H87.5742V24.8082H88.0932Z" fill="white"/>
<path d="M90.3496 27.4334C90.1611 27.4376 89.9731 27.4558 89.7873 27.4876C89.6567 27.5078 89.5292 27.5443 89.4077 27.5962C89.325 27.6304 89.2522 27.6849 89.1961 27.7547C89.1538 27.8143 89.1312 27.8857 89.1316 27.9588C89.1302 28.0225 89.1422 28.0858 89.1669 28.1445C89.1882 28.194 89.2202 28.2381 89.2607 28.2737C89.3028 28.3066 89.3509 28.3313 89.4022 28.3464C89.46 28.3611 89.5194 28.3684 89.5791 28.3681C89.6564 28.3688 89.7335 28.3608 89.809 28.3442C89.8768 28.3269 89.9423 28.3016 90.0042 28.2688C90.0668 28.2364 90.1259 28.1977 90.1805 28.1532C90.2399 28.1065 90.2955 28.0553 90.3469 28.0001L90.3496 27.4334ZM88.8111 26.3206C88.9502 26.1822 89.1143 26.0716 89.2948 25.9949C89.4776 25.921 89.6732 25.8841 89.8703 25.8863C90.0087 25.8839 90.1461 25.9096 90.2743 25.9618C90.3875 26.0089 90.489 26.0805 90.5715 26.1713C90.6542 26.2659 90.7161 26.3769 90.7531 26.497C90.7951 26.6327 90.8158 26.774 90.8144 26.9161V28.658H90.6029C90.5655 28.6602 90.5282 28.6528 90.4945 28.6363C90.4651 28.6134 90.4444 28.5813 90.4359 28.5451L90.3817 28.2872C90.3094 28.3535 90.2398 28.4126 90.1729 28.4647C90.106 28.5146 90.0344 28.5579 89.9592 28.5939C89.882 28.6287 89.8013 28.655 89.7184 28.6721C89.6262 28.6926 89.532 28.7025 89.4375 28.7014C89.3369 28.7021 89.2366 28.6876 89.1403 28.6585C89.0511 28.63 88.9684 28.5843 88.8968 28.5239C88.8274 28.4619 88.7719 28.3859 88.7341 28.3008C88.6927 28.1985 88.6729 28.0887 88.6755 27.9784C88.6761 27.8691 88.7067 27.7621 88.7639 27.669C88.8349 27.5571 88.9335 27.4655 89.0502 27.403C89.2118 27.3148 89.3857 27.2513 89.566 27.2146C89.8229 27.1594 90.0848 27.1307 90.3475 27.1288V26.9166C90.36 26.746 90.3115 26.5766 90.2108 26.4384C90.1612 26.3825 90.0995 26.3388 90.0304 26.3106C89.9613 26.2824 89.8867 26.2704 89.8122 26.2755C89.7112 26.2727 89.6106 26.2882 89.515 26.3211C89.4431 26.3467 89.3742 26.38 89.3095 26.4205C89.252 26.4563 89.201 26.4894 89.1593 26.5198C89.1237 26.5466 89.0806 26.5616 89.0361 26.5627C89.0068 26.5634 88.978 26.5548 88.9537 26.5383C88.9305 26.5204 88.9107 26.4985 88.8952 26.4737L88.8111 26.3206Z" fill="white"/>
<path d="M92.0133 28.0038C92.0862 28.1098 92.1845 28.1958 92.2991 28.254C92.4082 28.3036 92.5269 28.3285 92.6468 28.3268C92.7588 28.3328 92.8706 28.3112 92.9723 28.2639C93.0741 28.2165 93.1627 28.1449 93.2303 28.0554C93.3797 27.826 93.451 27.5545 93.4337 27.2813C93.4362 27.1276 93.42 26.9741 93.3854 26.8242C93.3619 26.7125 93.3163 26.6066 93.2514 26.5127C93.1971 26.4338 93.122 26.3714 93.0345 26.3324C92.9421 26.2943 92.8427 26.2758 92.7428 26.2782C92.599 26.2755 92.4573 26.3131 92.3338 26.3867C92.2087 26.467 92.0998 26.5701 92.0128 26.6907L92.0133 28.0038ZM91.9889 26.359C92.0985 26.2216 92.2328 26.1058 92.3848 26.0176C92.5417 25.9297 92.7191 25.8851 92.8989 25.8884C93.0457 25.8863 93.1911 25.9175 93.3241 25.9796C93.453 26.0398 93.5649 26.1312 93.6495 26.2456C93.7454 26.3758 93.8154 26.5232 93.8556 26.6799C93.9063 26.8748 93.9305 27.0756 93.9278 27.277C93.9293 27.4672 93.9023 27.6565 93.848 27.8388C93.799 28.0016 93.7201 28.1538 93.6154 28.2877C93.5134 28.4173 93.3828 28.5214 93.2338 28.5919C93.0849 28.6623 92.9216 28.6972 92.7569 28.6937C92.6097 28.6975 92.4634 28.6689 92.3284 28.6101C92.2098 28.5522 92.1036 28.4718 92.0155 28.3735V29.5774H91.5366V25.9329H91.8229C91.8526 25.9305 91.882 25.9394 91.9054 25.9578C91.9287 25.9763 91.9442 26.0029 91.9488 26.0323L91.9889 26.359Z" fill="white"/>
<path d="M95.0182 28.0038C95.0914 28.1097 95.1898 28.1957 95.3045 28.254C95.4136 28.3036 95.5323 28.3284 95.6521 28.3268C95.7642 28.3328 95.876 28.3112 95.9777 28.2639C96.0794 28.2165 96.168 28.1449 96.2357 28.0554C96.385 27.826 96.4563 27.5545 96.4391 27.2813C96.4415 27.1275 96.4253 26.9741 96.3908 26.8242C96.367 26.7126 96.3214 26.6067 96.2568 26.5127C96.2023 26.4339 96.1273 26.3716 96.0399 26.3324C95.9475 26.2942 95.8481 26.2758 95.7481 26.2781C95.6044 26.2754 95.4628 26.313 95.3393 26.3867C95.2139 26.4669 95.1048 26.5701 95.0177 26.6907L95.0182 28.0038ZM94.9943 26.359C95.1036 26.2213 95.238 26.1055 95.3902 26.0176C95.547 25.9298 95.7242 25.8852 95.9038 25.8884C96.0507 25.8862 96.1963 25.9174 96.3295 25.9796C96.4584 26.0397 96.5702 26.1312 96.6549 26.2456C96.751 26.3757 96.8212 26.5232 96.8616 26.6798C96.9121 26.8748 96.9364 27.0756 96.9337 27.277C96.935 27.4672 96.908 27.6565 96.8534 27.8388C96.8044 28.0016 96.7255 28.1538 96.6207 28.2877C96.5188 28.4174 96.3881 28.5216 96.239 28.5921C96.0899 28.6625 95.9265 28.6973 95.7617 28.6937C95.6147 28.6974 95.4687 28.6689 95.3338 28.6101C95.2152 28.552 95.1088 28.4717 95.0204 28.3735V29.5774H94.542V25.9329H94.8279C94.8575 25.9304 94.887 25.9392 94.9103 25.9577C94.9337 25.9761 94.9492 26.0028 94.9536 26.0323L94.9943 26.359Z" fill="white"/>
<path d="M99.3529 27.0028C99.354 26.8997 99.3376 26.7971 99.3046 26.6993C99.2769 26.6107 99.2305 26.5291 99.1685 26.46C99.1094 26.3918 99.035 26.3384 98.9515 26.3042C98.8593 26.266 98.7601 26.2475 98.6603 26.2499C98.561 26.2448 98.4616 26.26 98.3684 26.2946C98.2751 26.3292 98.1899 26.3826 98.118 26.4513C97.9769 26.6034 97.8902 26.7982 97.8717 27.005L99.3529 27.0028ZM99.7379 28.2795C99.6774 28.3527 99.606 28.4162 99.5264 28.4679C99.4431 28.5205 99.3544 28.5638 99.2618 28.5971C99.168 28.6313 99.0712 28.6566 98.9727 28.6725C98.8746 28.6902 98.7751 28.6991 98.6755 28.6991C98.4981 28.701 98.3219 28.6691 98.1564 28.6052C98.0017 28.5421 97.8621 28.4468 97.747 28.3256C97.6277 28.193 97.5365 28.0376 97.4791 27.8686C97.412 27.6676 97.3795 27.4567 97.3831 27.2449C97.3817 27.064 97.4107 26.8842 97.4688 26.7129C97.5237 26.5553 97.6093 26.4101 97.7204 26.2857C97.831 26.1626 97.9673 26.0653 98.1196 26.0007C98.2868 25.9287 98.4674 25.893 98.6495 25.896C98.8033 25.8944 98.9559 25.9226 99.099 25.979C99.2345 26.0305 99.3569 26.1114 99.4575 26.2157C99.5628 26.3241 99.6439 26.4536 99.6956 26.5957C99.755 26.7612 99.7838 26.9361 99.7807 27.1119C99.7853 27.1632 99.7771 27.2149 99.7569 27.2623C99.7462 27.2758 99.7322 27.2864 99.7162 27.2929C99.7003 27.2995 99.6829 27.3018 99.6658 27.2997H97.8549C97.8572 27.4519 97.8808 27.603 97.9249 27.7486C97.9619 27.8658 98.0218 27.9745 98.1012 28.0684C98.1747 28.1517 98.2664 28.2171 98.3691 28.2594C98.48 28.302 98.598 28.323 98.7167 28.3213C98.8207 28.3235 98.9243 28.3099 99.0242 28.2811C99.1013 28.2567 99.1764 28.2262 99.2487 28.1899C99.3019 28.1632 99.3537 28.1336 99.4038 28.1015C99.4352 28.0772 99.4728 28.0624 99.5123 28.0586C99.53 28.0578 99.5477 28.0616 99.5635 28.0696C99.5794 28.0776 99.5929 28.0895 99.6028 28.1042L99.7379 28.2795Z" fill="white"/>
<path d="M100.818 26.3336C100.875 26.2687 100.938 26.2084 101.005 26.1534C101.07 26.1004 101.14 26.0544 101.214 26.0161C101.288 25.9769 101.367 25.9471 101.449 25.9276C101.538 25.9055 101.629 25.8948 101.72 25.8956C101.854 25.8929 101.987 25.9186 102.111 25.971C102.221 26.0167 102.318 26.0886 102.394 26.1806C102.474 26.2759 102.533 26.3868 102.568 26.5063C102.609 26.6431 102.629 26.7853 102.627 26.928V28.6618H102.148V26.928C102.159 26.7568 102.109 26.5874 102.006 26.4498C101.954 26.3901 101.888 26.3435 101.814 26.3137C101.74 26.2838 101.661 26.2715 101.581 26.2777C101.443 26.277 101.306 26.3121 101.185 26.3798C101.058 26.4526 100.944 26.5461 100.847 26.6566V28.6618H100.369V25.9385H100.655C100.685 25.936 100.714 25.9449 100.738 25.9633C100.761 25.9818 100.777 26.0083 100.781 26.0378L100.818 26.3336Z" fill="white"/>
<path d="M47.0635 31.6002C46.9072 31.6001 46.7544 31.5536 46.6244 31.4666C46.4945 31.3796 46.3932 31.256 46.3334 31.1114C46.2736 30.9668 46.258 30.8077 46.2886 30.6543C46.3191 30.5008 46.3944 30.3598 46.5049 30.2492C46.6155 30.1385 46.7563 30.0632 46.9096 30.0326C47.063 30.002 47.2219 30.0177 47.3664 30.0775C47.5108 30.1373 47.6343 30.2387 47.7213 30.3688C47.8082 30.4988 47.8546 30.6518 47.8548 30.8083C47.8546 31.0183 47.7712 31.2196 47.6228 31.3681C47.4745 31.5166 47.2733 31.6001 47.0635 31.6002ZM22.533 48.5689C22.3766 48.5688 22.2238 48.5223 22.0938 48.4352C21.9639 48.3482 21.8626 48.2246 21.8029 48.0799C21.7431 47.9353 21.7275 47.7762 21.7581 47.6227C21.7886 47.4692 21.864 47.3282 21.9746 47.2176C22.0852 47.107 22.2261 47.0317 22.3795 47.0012C22.5328 46.9707 22.6918 46.9864 22.8362 47.0463C22.9807 47.1062 23.1042 47.2077 23.191 47.3378C23.2779 47.4679 23.3242 47.6209 23.3242 47.7774C23.3242 47.8814 23.3038 47.9844 23.264 48.0804C23.2242 48.1765 23.1659 48.2638 23.0925 48.3373C23.019 48.4108 22.9317 48.469 22.8357 48.5088C22.7397 48.5485 22.6369 48.5689 22.533 48.5689ZM47.0635 29.3893C46.8772 29.3892 46.6927 29.4259 46.5205 29.4972C46.3484 29.5685 46.1919 29.673 46.0602 29.8049C45.9284 29.9367 45.8238 30.0932 45.7524 30.2654C45.6811 30.4377 45.6443 30.6223 45.6442 30.8088C45.6445 30.87 45.6485 30.9311 45.6562 30.9917C43.3361 32.1693 40.6671 32.4615 38.1477 31.8136C38.045 31.7871 37.9372 31.788 37.835 31.8159C37.7328 31.8439 37.6396 31.8981 37.5647 31.9732L23.0786 46.4654C22.782 46.3415 22.4521 46.3222 22.1432 46.4107C21.8342 46.4991 21.5644 46.6902 21.3782 46.9523C21.192 47.2145 21.1004 47.5323 21.1185 47.8534C21.1365 48.1746 21.2631 48.4801 21.4775 48.7197C21.6919 48.9593 21.9814 49.1189 22.2983 49.1721C22.6152 49.2254 22.9409 49.1692 23.2217 49.0127C23.5025 48.8563 23.7218 48.6089 23.8436 48.3113C23.9655 48.0136 23.9825 47.6833 23.8921 47.3747L38.1851 33.0773C40.9373 33.6992 43.8207 33.3247 46.3232 32.0204C46.5102 32.1349 46.7211 32.2046 46.9394 32.2239C47.1577 32.2432 47.3776 32.2115 47.5816 32.1315C47.7857 32.0515 47.9685 31.9252 48.1156 31.7626C48.2628 31.6 48.3703 31.4054 48.4297 31.1943C48.4891 30.9831 48.4988 30.761 48.4581 30.5455C48.4174 30.3299 48.3273 30.1267 48.1949 29.9518C48.0626 29.777 47.8915 29.6352 47.6952 29.5376C47.4989 29.44 47.2827 29.3892 47.0635 29.3893ZM48.4844 24.0007C48.328 24.0006 48.1752 23.9541 48.0452 23.8671C47.9153 23.78 47.814 23.6564 47.7543 23.5118C47.6945 23.3672 47.6789 23.208 47.7095 23.0546C47.7401 22.9011 47.8154 22.7601 47.926 22.6495C48.0366 22.5388 48.1775 22.4635 48.3309 22.433C48.4842 22.4025 48.6432 22.4182 48.7877 22.4781C48.9321 22.5381 49.0556 22.6395 49.1424 22.7696C49.2293 22.8998 49.2757 23.0528 49.2757 23.2093C49.2757 23.3133 49.2552 23.4162 49.2154 23.5123C49.1756 23.6083 49.1173 23.6956 49.0439 23.7691C48.9704 23.8426 48.8832 23.9009 48.7872 23.9406C48.6912 23.9804 48.5883 24.0008 48.4844 24.0007ZM38.959 30.12C38.8025 30.1201 38.6494 30.0737 38.5192 29.9867C38.389 29.8998 38.2875 29.7761 38.2276 29.6314C38.1676 29.4867 38.1518 29.3275 38.1823 29.1738C38.2128 29.0201 38.2881 28.879 38.3987 28.7682C38.5094 28.6573 38.6504 28.5819 38.8039 28.5513C38.9574 28.5207 39.1165 28.5363 39.2611 28.5962C39.4057 28.6562 39.5293 28.7577 39.6163 28.8879C39.7033 29.0182 39.7497 29.1713 39.7497 29.328C39.7498 29.432 39.7294 29.5349 39.6897 29.631C39.6499 29.7271 39.5917 29.8144 39.5183 29.888C39.4449 29.9615 39.3577 30.0199 39.2617 30.0597C39.1657 30.0995 39.0629 30.12 38.959 30.12ZM48.4844 21.7898C48.1931 21.7898 47.9089 21.8795 47.6704 22.0467C47.4318 22.214 47.2505 22.4508 47.1511 22.7248C47.0517 22.9988 47.039 23.2968 47.1147 23.5783C47.1905 23.8598 47.3509 24.1112 47.5744 24.2982C46.9806 25.7178 45.9553 26.9142 44.644 27.7179C43.3327 28.5215 41.8019 28.8915 40.2687 28.7754C40.1433 28.4784 39.9208 28.233 39.6377 28.0793C39.3545 27.9257 39.0275 27.873 38.7105 27.93C38.3935 27.987 38.1053 28.1502 37.8932 28.3928C37.6811 28.6354 37.5578 28.943 37.5434 29.2651C37.5291 29.5871 37.6247 29.9045 37.8144 30.165C38.0041 30.4255 38.2767 30.6137 38.5874 30.6986C38.8981 30.7835 39.2285 30.7602 39.5241 30.6323C39.8198 30.5045 40.0633 30.2798 40.2145 29.9951C40.4151 30.0096 40.6163 30.017 40.8181 30.0174C42.5328 30.0166 44.2076 29.4997 45.6249 28.5336C47.0422 27.5676 48.1364 26.1972 48.7653 24.6005C49.1097 24.5301 49.4156 24.3342 49.6239 24.0509C49.8322 23.7675 49.928 23.4169 49.8928 23.0669C49.8575 22.7169 49.6937 22.3924 49.4331 22.1564C49.1725 21.9203 48.8337 21.7895 48.4822 21.7893L48.4844 21.7898ZM34.801 25.8219C34.9573 25.8219 35.1102 25.8683 35.2402 25.9553C35.3703 26.0422 35.4716 26.1658 35.5315 26.3105C35.5913 26.4551 35.607 26.6142 35.5765 26.7677C35.546 26.9213 35.4707 27.0623 35.3601 27.173C35.2495 27.2836 35.1086 27.359 34.9552 27.3896C34.8018 27.4201 34.6428 27.4044 34.4984 27.3445C34.3539 27.2846 34.2304 27.1832 34.1435 27.053C34.0566 26.9229 34.0102 26.7699 34.0102 26.6133C34.0102 26.4034 34.0935 26.2021 34.2418 26.0537C34.3901 25.9053 34.5912 25.8219 34.801 25.8219ZM48.095 17.3902C48.2514 17.3902 48.4043 17.4366 48.5343 17.5236C48.6643 17.6106 48.7657 17.7342 48.8255 17.8788C48.8854 18.0234 48.901 18.1825 48.8705 18.3361C48.84 18.4896 48.7647 18.6306 48.6541 18.7413C48.5435 18.852 48.4026 18.9274 48.2493 18.9579C48.0959 18.9884 47.9369 18.9728 47.7924 18.9129C47.6479 18.853 47.5244 18.7515 47.4376 18.6214C47.3507 18.4912 47.3043 18.3382 47.3043 18.1817C47.3044 17.9718 47.3878 17.7706 47.536 17.6222C47.6843 17.4738 47.8853 17.3904 48.095 17.3902ZM48.095 19.6017C48.4712 19.6017 48.832 19.4521 49.098 19.1858C49.364 18.9196 49.5135 18.5585 49.5135 18.1819C49.5135 17.8054 49.364 17.4443 49.098 17.178C48.832 16.9118 48.4712 16.7622 48.095 16.7622C48.0463 16.7622 47.9976 16.765 47.9491 16.7703C46.7148 14.8964 44.7937 13.5834 42.6007 13.1148C40.4076 12.6463 38.1183 13.0597 36.2271 14.2658C34.3359 15.472 32.9944 17.3741 32.4922 19.5616C31.99 21.7492 32.3673 24.0466 33.5428 25.9581C33.3936 26.2444 33.3461 26.573 33.408 26.8899C33.47 27.2067 33.6377 27.4931 33.8836 27.7021C34.1296 27.911 34.4392 28.03 34.7616 28.0397C35.0841 28.0493 35.4002 27.9489 35.6582 27.7551C35.9162 27.5612 36.1007 27.2853 36.1814 26.9727C36.2621 26.6601 36.2342 26.3293 36.1024 26.0346C35.9706 25.7399 35.7426 25.4988 35.4559 25.3509C35.1691 25.2029 34.8407 25.157 34.5244 25.2204C33.5312 23.5777 33.2219 21.6104 33.6629 19.7417C34.104 17.8731 35.2602 16.2523 36.8828 15.2281C38.5054 14.2039 40.4649 13.858 42.3396 14.2649C44.2144 14.6717 45.8548 15.7989 46.9078 17.4038C46.7678 17.6179 46.6882 17.866 46.6775 18.1217C46.6667 18.3774 46.7253 18.6312 46.847 18.8563C46.9687 19.0814 47.1489 19.2694 47.3686 19.4003C47.5883 19.5312 47.8393 19.6003 48.095 19.6001V19.6017ZM36.7615 3.79957C36.9179 3.79957 37.0707 3.84599 37.2008 3.93296C37.3308 4.01992 37.4321 4.14352 37.492 4.28814C37.5518 4.43276 37.5675 4.59189 37.537 4.74541C37.5065 4.89893 37.4312 5.03995 37.3206 5.15064C37.21 5.26132 37.0691 5.3367 36.9157 5.36724C36.7623 5.39778 36.6034 5.3821 36.4589 5.3222C36.3144 5.2623 36.1909 5.16086 36.104 5.03071C36.0171 4.90056 35.9708 4.74754 35.9708 4.59101C35.9709 4.38115 36.0543 4.17993 36.2025 4.03154C36.3508 3.88315 36.5518 3.79972 36.7615 3.79957ZM48.7621 12.6324C48.9185 12.6324 49.0713 12.6788 49.2014 12.7658C49.3314 12.8527 49.4327 12.9763 49.4926 13.121C49.5524 13.2656 49.5681 13.4247 49.5376 13.5782C49.5071 13.7317 49.4318 13.8728 49.3212 13.9834C49.2106 14.0941 49.0697 14.1695 48.9163 14.2C48.7629 14.2306 48.604 14.2149 48.4595 14.155C48.315 14.0951 48.1915 13.9937 48.1046 13.8635C48.0177 13.7334 47.9714 13.5804 47.9714 13.4238C47.9715 13.214 48.0549 13.0127 48.2031 12.8643C48.3514 12.716 48.5524 12.6325 48.7621 12.6324ZM36.7615 6.00995C36.9476 6.00995 37.1319 5.97305 37.3038 5.90138L42.1506 10.7504C42.2416 10.8418 42.3594 10.9019 42.4868 10.922C44.2773 11.2011 45.966 11.9361 47.3911 13.0563C47.3586 13.1758 47.3422 13.299 47.3423 13.4227C47.3421 13.7292 47.4409 14.0276 47.624 14.2732C47.8072 14.5189 48.0648 14.6987 48.3584 14.7857C48.652 14.8728 48.9659 14.8624 49.2532 14.7563C49.5404 14.6501 49.7857 14.4538 49.9523 14.1966C50.1189 13.9394 50.198 13.6352 50.1777 13.3294C50.1573 13.0236 50.0387 12.7325 49.8396 12.4997C49.6404 12.2669 49.3713 12.1048 49.0726 12.0376C48.7738 11.9705 48.4613 12.0018 48.1818 12.127C46.6389 10.9033 44.8143 10.0859 42.8746 9.74945L38.1222 4.99378C38.2074 4.70774 38.2005 4.4021 38.1023 4.12023C38.0042 3.83837 37.8198 3.59461 37.5754 3.42356C37.331 3.25251 37.039 3.16286 36.7408 3.16735C36.4426 3.17183 36.1534 3.27021 35.9142 3.44853C35.6751 3.62684 35.4981 3.87603 35.4085 4.16072C35.3188 4.44541 35.3211 4.75113 35.4148 5.03448C35.5086 5.31783 35.6892 5.56441 35.9309 5.73922C36.1726 5.91403 36.4632 6.00819 36.7615 6.00832V6.00995ZM1.41913 17.8044C1.26261 17.8044 1.10961 17.7579 0.979476 17.6709C0.849344 17.5838 0.747927 17.4601 0.688055 17.3154C0.628182 17.1706 0.612545 17.0114 0.643119 16.8577C0.673694 16.7041 0.749108 16.563 0.859821 16.4522C0.970534 16.3415 1.11157 16.2661 1.2651 16.2356C1.41862 16.2051 1.57773 16.2209 1.72231 16.2809C1.86688 16.3409 1.99042 16.4425 2.0773 16.5728C2.16418 16.7031 2.21049 16.8563 2.21038 17.013C2.21038 17.1169 2.18991 17.2199 2.15014 17.316C2.11037 17.412 2.05208 17.4993 1.9786 17.5728C1.90512 17.6463 1.81789 17.7046 1.72189 17.7443C1.62589 17.7841 1.52301 17.8045 1.41913 17.8044ZM24.8661 2.21128C24.7096 2.21138 24.5566 2.16504 24.4264 2.0781C24.2962 1.99117 24.1947 1.86755 24.1347 1.72288C24.0747 1.5782 24.059 1.41897 24.0894 1.26532C24.1198 1.11167 24.1951 0.970504 24.3056 0.859668C24.4162 0.748832 24.5572 0.673307 24.7106 0.642643C24.8641 0.611979 25.0232 0.627553 25.1678 0.687397C25.3125 0.747241 25.4361 0.848666 25.5231 0.978846C25.6102 1.10903 25.6567 1.26212 25.6568 1.41875C25.6569 1.52276 25.6365 1.62576 25.5968 1.72187C25.5571 1.81799 25.4988 1.90533 25.4254 1.97893C25.352 2.05252 25.2648 2.11092 25.1688 2.15078C25.0729 2.19065 24.97 2.2112 24.8661 2.21128ZM30.9759 17.3235C31.8767 15.1945 33.44 13.4135 35.4333 12.2454C35.5137 12.1983 35.5823 12.1334 35.6338 12.0556C35.6852 11.9779 35.7181 11.8894 35.73 11.7969C35.7419 11.7044 35.7325 11.6104 35.7024 11.5221C35.6723 11.4339 35.6223 11.3537 35.5564 11.2878L26.1948 1.92032C26.3081 1.61861 26.3155 1.28731 26.2158 0.980833C26.1161 0.674352 25.9153 0.41091 25.6462 0.233772C25.3772 0.0566349 25.056 -0.023667 24.7354 0.00605463C24.4147 0.0357763 24.1137 0.173755 23.8817 0.397329C23.6498 0.620904 23.5007 0.916783 23.4589 1.23637C23.4172 1.55596 23.4853 1.88027 23.652 2.15602C23.8187 2.43178 24.0741 2.64259 24.3764 2.75384C24.6786 2.86508 25.0096 2.87015 25.3151 2.76821L34.155 11.613C33.5276 12.0387 32.942 12.5231 32.406 13.0596C31.4146 14.0491 30.6067 15.207 30.0198 16.4794H2.73265C2.61116 16.1808 2.39181 15.9325 2.11065 15.7753C1.82949 15.6181 1.50325 15.5613 1.18557 15.6143C0.867894 15.6673 0.577675 15.8269 0.362626 16.0668C0.147577 16.3068 0.020496 16.6128 0.00227379 16.9347C-0.0159484 17.2565 0.0757726 17.575 0.262359 17.8377C0.448945 18.1005 0.719292 18.2918 1.02896 18.3804C1.33862 18.469 1.66918 18.4494 1.96629 18.325C2.26339 18.2006 2.50936 17.9787 2.66377 17.6958H30.4146C30.5343 17.6959 30.6514 17.6607 30.7513 17.5946C30.8511 17.5285 30.9292 17.4343 30.9759 17.324V17.3235ZM13.1334 22.078C12.977 22.078 12.8241 22.0316 12.6941 21.9447C12.5641 21.8577 12.4627 21.7341 12.4029 21.5895C12.343 21.4449 12.3274 21.2857 12.3579 21.1322C12.3884 20.9787 12.4637 20.8377 12.5743 20.727C12.6848 20.6163 12.8257 20.5409 12.9791 20.5104C13.1325 20.4798 13.2915 20.4955 13.436 20.5554C13.5805 20.6153 13.704 20.7168 13.7908 20.8469C13.8777 20.9771 13.9241 21.1301 13.9241 21.2866C13.9242 21.4964 13.8411 21.6977 13.6931 21.8462C13.545 21.9947 13.3441 22.0783 13.1345 22.0786L13.1334 22.078ZM24.3666 38.5212C24.2101 38.5212 24.0571 38.4748 23.927 38.3878C23.7969 38.3007 23.6955 38.177 23.6356 38.0323C23.5757 37.8876 23.56 37.7284 23.5905 37.5747C23.6211 37.4211 23.6964 37.28 23.8071 37.1692C23.9177 37.0585 24.0587 36.983 24.2122 36.9525C24.3657 36.9219 24.5248 36.9376 24.6694 36.9976C24.814 37.0575 24.9375 37.159 25.0245 37.2892C25.1114 37.4195 25.1578 37.5726 25.1578 37.7292C25.1579 37.8333 25.1375 37.9363 25.0978 38.0324C25.058 38.1285 24.9997 38.2159 24.9263 38.2894C24.8528 38.363 24.7655 38.4213 24.6695 38.4611C24.5734 38.5009 24.4705 38.5213 24.3666 38.5212ZM31.9207 29.3714L24.8867 36.4086C24.6046 36.2974 24.2943 36.2796 24.0014 36.3579C23.7084 36.4362 23.4483 36.6063 23.2591 36.8434C23.0698 37.0806 22.9615 37.3721 22.95 37.6754C22.9384 37.9786 23.0243 38.2776 23.195 38.5284C23.3656 38.7792 23.6121 38.9687 23.8983 39.069C24.1844 39.1693 24.4951 39.1752 24.7849 39.0859C25.0746 38.9965 25.3281 38.8165 25.5081 38.5723C25.6882 38.3282 25.7853 38.0327 25.7853 37.7292C25.7855 37.5838 25.7635 37.4392 25.7202 37.3004L33.2 29.8165C33.3135 29.7027 33.3775 29.5486 33.3781 29.3878C33.3787 29.227 33.3159 29.0725 33.2033 28.9578C32.203 27.9464 31.4166 26.7437 30.891 25.4214C30.3653 24.0991 30.1113 22.6844 30.144 21.2616C30.1455 21.1805 30.1309 21.0999 30.1009 21.0245C30.071 20.9491 30.0263 20.8804 29.9696 20.8224C29.9129 20.7645 29.8452 20.7184 29.7704 20.6869C29.6957 20.6554 29.6155 20.6391 29.5344 20.639H14.397C14.2502 20.3524 14.0104 20.1242 13.7169 19.992C13.4234 19.8599 13.0937 19.8315 12.782 19.9117C12.4703 19.9919 12.1951 20.1758 12.0017 20.4332C11.8082 20.6906 11.7079 21.0062 11.7174 21.3282C11.7268 21.6502 11.8454 21.9594 12.0536 22.205C12.2619 22.4506 12.5474 22.618 12.8632 22.6797C13.1791 22.7414 13.5066 22.6938 13.7918 22.5446C14.077 22.3954 14.3031 22.1535 14.4328 21.8587H28.9281C29.0089 24.6379 30.0689 27.299 31.9207 29.3714Z" fill="white"/>
</svg>
